<?xml version="1.0" encoding="UTF-8"?>
<svg version="1.1" xmlns="http://www.w3.org/2000/svg" width="505" height="499">
<path d="M0 0 C0.99805664 0.19335938 1.99611328 0.38671875 3.02441406 0.5859375 C42.90339789 8.46687117 81.53117054 24.96669563 113 51 C113.51981445 51.41975098 114.03962891 51.83950195 114.57519531 52.27197266 C130.72037904 65.32728548 145.84388906 80.13889526 158 97 C158.99056308 98.33487467 159.98146386 99.6694988 160.97265625 101.00390625 C168.2155665 110.87945493 174.38749357 121.12254547 180 132 C180.41491699 132.79325684 180.82983398 133.58651367 181.25732422 134.40380859 C199.17998949 169.0019256 207.69721652 207.35069449 207.4375 246.1875 C207.43293793 247.64994644 207.43293793 247.64994644 207.42828369 249.14193726 C207.35516931 265.06933689 206.37857197 280.38760349 203 296 C202.78569336 297.01707031 202.57138672 298.03414063 202.35058594 299.08203125 C194.27079082 336.48195626 177.74406323 371.05304286 154 401 C153.57847656 401.53866699 153.15695312 402.07733398 152.72265625 402.63232422 C141.03753817 417.45805111 127.18246434 431.75833925 112 443 C111.38576172 443.46889648 110.77152344 443.93779297 110.13867188 444.42089844 C98.36214155 453.40120047 86.07707474 461.0590165 73 468 C72.17725586 468.43940918 71.35451172 468.87881836 70.50683594 469.33154297 C48.6023462 480.85080967 24.304293 488.53481418 0 493 C-0.80598633 493.16081055 -1.61197266 493.32162109 -2.44238281 493.48730469 C-30.28387553 498.89071564 -63.22686009 498.65085633 -91 493 C-91.99805664 492.80664062 -92.99611328 492.61328125 -94.02441406 492.4140625 C-133.90339789 484.53312883 -172.53117054 468.03330437 -204 442 C-204.51981445 441.58024902 -205.03962891 441.16049805 -205.57519531 440.72802734 C-221.72037904 427.67271452 -236.84388906 412.86110474 -249 396 C-249.99056308 394.66512533 -250.98146386 393.3305012 -251.97265625 391.99609375 C-259.2155665 382.12054507 -265.38749357 371.87745453 -271 361 C-271.41491699 360.20674316 -271.82983398 359.41348633 -272.25732422 358.59619141 C-290.17998949 323.9980744 -298.69721652 285.64930551 -298.4375 246.8125 C-298.43445862 245.83753571 -298.43141724 244.86257141 -298.42828369 243.85806274 C-298.35516931 227.93066311 -297.37857197 212.61239651 -294 197 C-293.78569336 195.98292969 -293.57138672 194.96585938 -293.35058594 193.91796875 C-285.27079082 156.51804374 -268.74406323 121.94695714 -245 92 C-244.57847656 91.46133301 -244.15695313 90.92266602 -243.72265625 90.36767578 C-232.03753817 75.54194889 -218.18246434 61.24166075 -203 50 C-202.38576172 49.53110352 -201.77152344 49.06220703 -201.13867188 48.57910156 C-189.36214155 39.59879953 -177.07707474 31.9409835 -164 25 C-163.17725586 24.56059082 -162.35451172 24.12118164 -161.50683594 23.66845703 C-139.6023462 12.14919033 -115.304293 4.46518582 -91 0 C-90.19401367 -0.16081055 -89.38802734 -0.32162109 -88.55761719 -0.48730469 C-60.71612447 -5.89071564 -27.77313991 -5.65085633 0 0 Z " fill="#152944" transform="translate(298,3)"/>
<path d="M0 0 C0.70125 0.0825 1.4025 0.165 2.125 0.25 C4.46419218 1.18567687 5.71454963 2.74137563 7.45166016 4.51513672 C10.46716426 7.40701562 13.81691023 9.89259486 17.125 12.4375 C17.91197266 13.04658203 18.69894531 13.65566406 19.50976562 14.28320312 C25.88415462 19.19395569 32.35316157 23.96927001 38.84936523 28.71704102 C47.37248357 34.96485656 55.69582264 41.46531932 64 48 C64.02578125 46.91460937 64.0515625 45.82921875 64.078125 44.7109375 C64.13443738 43.26558651 64.191784 41.82027556 64.25 40.375 C64.26417969 39.66214844 64.27835937 38.94929688 64.29296875 38.21484375 C64.52751986 33.10162961 65.66436832 30.07548983 69 26 C71.56018036 24.71990982 73.4216528 24.84492877 76.28833008 24.80712891 C77.39320267 24.79106598 78.49807526 24.77500305 79.63642883 24.75845337 C84.69161424 24.71407965 89.74666745 24.67294199 94.80200195 24.64990234 C97.47091561 24.63656713 100.13802187 24.60604198 102.80688477 24.56787109 C106.64883513 24.51318649 110.48974444 24.49124013 114.33203125 24.4765625 C115.52488235 24.45389313 116.71773346 24.43122375 117.94673157 24.40786743 C127.16093621 24.43143392 127.16093621 24.43143392 130.22924805 27.40771484 C132.96647846 31.41487224 133.0984049 33.36588979 132.99902344 38.21875 C132.97700867 39.5277124 132.9549939 40.8366748 132.93231201 42.18530273 C132.91952965 42.88775116 132.90674728 43.59019958 132.89357758 44.31393433 C132.82297235 48.82668418 132.81676246 53.34007379 132.79972458 57.85328674 C132.78112224 61.81347772 132.73948557 65.77077623 132.64697266 69.72998047 C132.55862608 73.56539849 132.53487534 77.39657554 132.55335236 81.23291016 C132.5490788 82.68742802 132.52206476 84.1420799 132.4708786 85.59570312 C132.09034748 93.546832 132.09034748 93.546832 135.26836586 100.58036041 C138.81365254 103.9614427 142.83134188 106.4600437 147 109 C148.61001334 110.16540814 150.21094627 111.3437441 151.79296875 112.546875 C153.25725773 113.61534403 154.72210502 114.68304833 156.1875 115.75 C163.35882823 121.00140522 170.41609794 126.37904004 177.40722656 131.86767578 C181.09800552 134.76055907 184.80760301 137.61780248 188.578125 140.40625 C189.31135986 140.94878418 190.04459473 141.49131836 190.80004883 142.05029297 C192.1841833 143.07001511 193.57183538 144.08498679 194.96362305 145.09423828 C202.4938559 150.64221205 202.4938559 150.64221205 203.46875 155.18359375 C203.53003318 159.60364285 203.46733926 161.40967672 200.625 165 C197.20707873 167.60413049 195.66655332 168.12477688 191.45849609 168.11352539 C190.51767181 168.11344986 189.57684753 168.11337433 188.60751343 168.11329651 C187.08089584 168.10555458 187.08089584 168.10555458 185.5234375 168.09765625 C183.96286118 168.09553383 183.96286118 168.09553383 182.37075806 168.09336853 C179.03880979 168.08775866 175.70692805 168.07520447 172.375 168.0625 C170.11979264 168.05748627 167.86458422 168.05292314 165.609375 168.04882812 C160.07289386 168.03778603 154.53645168 168.02103827 149 168 C149.00368717 168.9952151 149.00737434 169.9904302 149.01117325 171.01580334 C149.09992571 195.21860522 149.16568125 219.42138603 149.20724869 243.62431622 C149.22788409 255.32862312 149.25602347 267.03282259 149.30175781 278.73706055 C149.34159552 288.93709582 149.36742569 299.13705331 149.37635398 309.33716422 C149.3815739 314.73932098 149.39386308 320.14125518 149.42292023 325.54334068 C149.45004078 330.626504 149.45845175 335.70935276 149.45243073 340.79258156 C149.45353246 342.65945265 149.46150628 344.52633411 149.4768219 346.3931427 C149.49669743 348.9403954 149.49194844 351.48645746 149.48101807 354.03373718 C149.49266943 354.77401694 149.5043208 355.51429671 149.51632524 356.27700919 C149.45990343 361.13504607 148.42896549 363.57528762 145 367 C141.66661244 369.33477408 138.70461093 369.23306237 134.703125 369.1953125 C133.49785156 369.18886719 132.29257812 369.18242187 131.05078125 369.17578125 C129.79652344 369.15902344 128.54226563 369.14226562 127.25 369.125 C125.98027344 369.11597656 124.71054687 369.10695313 123.40234375 369.09765625 C120.26803907 369.07409005 117.13411459 369.04118832 114 369 C113.67 367.68 113.34 366.36 113 365 C113.88751953 364.29037109 113.88751953 364.29037109 114.79296875 363.56640625 C115.58316406 362.90511719 116.37335938 362.24382812 117.1875 361.5625 C117.96480469 360.92441406 118.74210937 360.28632813 119.54296875 359.62890625 C128.30888437 350.24979462 127.71447157 340.91252183 127.64355469 328.7265625 C127.65037602 326.76628266 127.65940113 324.80600944 127.67045593 322.8457489 C127.69428555 317.54253232 127.68776176 312.23973726 127.67596722 306.93649673 C127.66910843 301.38624094 127.6912349 295.83610426 127.71051025 290.28588867 C127.74277838 279.78297263 127.75062668 269.28019401 127.74893594 258.77723408 C127.74747283 243.33521607 127.7809511 227.89326462 127.81666946 212.45129395 C127.82189387 210.17700196 127.8271162 207.90270997 127.83233643 205.62841797 C127.83494138 204.51869251 127.83754633 203.40896706 127.84023023 202.26561356 C127.85490343 195.65166662 127.86181354 189.03776717 127.86198473 182.42380428 C127.86262922 178.32331701 127.86696747 174.22283853 127.87195778 170.12235451 C127.87332496 168.21349951 127.87293524 166.30464238 127.87071037 164.39578819 C127.86782595 161.80200014 127.87089562 159.20828598 127.87542725 156.61450195 C127.87299475 155.84925516 127.87056226 155.08400837 127.86805606 154.29557228 C127.88602049 149.11397951 127.88602049 149.11397951 129 148 C131.29151417 147.91209025 133.58572524 147.89305962 135.87890625 147.90234375 C136.90889992 147.90446617 136.90889992 147.90446617 137.95970154 147.90663147 C140.16067801 147.91224521 142.36155409 147.92479993 144.5625 147.9375 C146.05143083 147.94251324 147.54036324 147.94707645 149.02929688 147.95117188 C152.68623075 147.96221907 156.34310558 147.97949287 160 148 C160 147.34 160 146.68 160 146 C159.42000244 145.72704102 158.84000488 145.45408203 158.24243164 145.17285156 C156.02497293 144.01306151 154.12670769 142.72740747 152.12109375 141.234375 C150.99985107 140.40353394 150.99985107 140.40353394 149.85595703 139.5559082 C148.6588208 138.66198364 148.6588208 138.66198364 147.4375 137.75 C145.73568271 136.48827366 144.03385962 135.22655514 142.33203125 133.96484375 C140.55462326 132.64331556 138.7772801 131.32170018 137 130 C133.54425966 127.43398149 130.08534251 124.87230741 126.625 122.3125 C125.83536865 121.72500977 125.0457373 121.13751953 124.23217773 120.53222656 C121.23396629 118.31382918 118.30688228 116.17976884 115.0859375 114.29296875 C113 113 113 113 111 110 C110.75949097 107.17158508 110.75949097 107.17158508 110.77294922 103.69262695 C110.77310028 102.39150467 110.77325134 101.09038239 110.77340698 99.74983215 C110.78362031 98.32931363 110.7940523 96.90879667 110.8046875 95.48828125 C110.80841817 94.03525487 110.81126489 92.58222597 110.81326294 91.12919617 C110.82089519 87.30688518 110.84054008 83.48472646 110.8626709 79.66247559 C110.88313817 75.7613328 110.89226654 71.86016539 110.90234375 67.95898438 C110.92378646 60.30591217 110.95896516 52.65299683 111 45 C103.08 45 95.16 45 87 45 C87.04640625 47.24039063 87.0928125 49.48078125 87.140625 51.7890625 C87.1718738 53.97344704 87.19613098 56.15780611 87.21972656 58.34228516 C87.23976791 59.85346736 87.26700905 61.36457272 87.30175781 62.87548828 C87.35061109 65.05520643 87.37304224 67.23389431 87.390625 69.4140625 C87.41157227 70.7232666 87.43251953 72.0324707 87.45410156 73.38134766 C86.92074474 77.63157069 85.75363288 79.74964052 83 83 C79.06993988 84.33222377 76.84751187 84.8223456 73.04296875 83.12890625 C70.58347643 81.5441091 68.30907725 79.79816073 66 78 C64.82496667 77.12484497 63.64771017 76.25267029 62.46875 75.3828125 C54.09157176 69.18127854 45.82792508 62.82738144 37.5546875 56.48828125 C31.63292605 51.95121677 25.70961368 47.4160029 19.76293945 42.91162109 C15.56720857 39.73293134 11.39641907 36.53353648 7.28515625 33.24609375 C6.55820557 32.6744751 5.83125488 32.10285645 5.08227539 31.51391602 C3.73000318 30.44957045 2.38854291 29.37128865 1.06030273 28.27709961 C-0.9112574 26.67384792 -0.9112574 26.67384792 -4 25 C-8.30626931 25.697267 -11.08910122 28.55737561 -14.3125 31.375 C-18.89759973 35.30385598 -23.58982602 39.02539851 -28.4375 42.625 C-34.88584995 47.4175435 -41.29921559 52.25257969 -47.6875 57.125 C-49.04029053 58.15633057 -49.04029053 58.15633057 -50.42041016 59.20849609 C-55.22770034 62.87626741 -60.02549266 66.55580823 -64.8125 70.25 C-70.00615873 74.25330673 -75.24541414 78.1919176 -80.49731445 82.11816406 C-87.10119522 87.06151115 -93.65764121 92.06630013 -100.21411133 97.07226562 C-105.51767155 101.11841012 -110.84067697 105.13626059 -116.1875 109.125 C-122.48847354 113.83027761 -128.70472705 118.63749764 -134.90087891 123.47973633 C-142.00732204 129.02613504 -149.17796089 134.48669374 -156.36010742 139.93457031 C-157.63785034 140.90475098 -157.63785034 140.90475098 -158.94140625 141.89453125 C-159.70138916 142.47050049 -160.46137207 143.04646973 -161.24438477 143.63989258 C-162.92460093 144.88262465 -162.92460093 144.88262465 -164 146 C-162.81241089 146.01401855 -162.81241089 146.01401855 -161.60083008 146.02832031 C-158.00409292 146.08209344 -154.40864648 146.16572963 -150.8125 146.25 C-149.56662109 146.26417969 -148.32074219 146.27835938 -147.03710938 146.29296875 C-145.2340332 146.34130859 -145.2340332 146.34130859 -143.39453125 146.390625 C-142.28956299 146.41157227 -141.18459473 146.43251953 -140.04614258 146.45410156 C-136.19914891 147.14352032 -134.70534984 148.18261425 -132 151 C-131.50815223 153.75738357 -131.34492895 155.89950737 -131.40113831 158.65377808 C-131.39701602 159.42883733 -131.39289374 160.20389658 -131.38864654 161.00244248 C-131.38074282 163.60230591 -131.40843254 166.20057929 -131.43579102 168.80029297 C-131.43716136 170.66304494 -131.43625108 172.52579978 -131.43322754 174.3885498 C-131.43120973 178.40145923 -131.44456923 182.41392275 -131.46954536 186.426754 C-131.50813678 192.77174813 -131.50780386 199.11637011 -131.50120544 205.4614563 C-131.49098082 221.22252595 -131.53408805 236.98340519 -131.58410645 252.74438477 C-131.62227413 264.99029593 -131.64656924 277.23591434 -131.63021225 289.48188889 C-131.62337196 295.78954608 -131.64491502 302.09627622 -131.68789494 308.40378165 C-131.7086095 312.32870038 -131.70450824 316.25330713 -131.69358063 320.17825317 C-131.6935957 321.99795683 -131.70391582 323.81769408 -131.725317 325.63727188 C-131.75313018 328.12316762 -131.74399758 330.60633075 -131.72584534 333.09225464 C-131.74284204 333.81132929 -131.75983873 334.53040394 -131.77735049 335.27126873 C-131.70605366 339.14803608 -130.95160333 341.58332696 -128.44090939 344.4482975 C-124.99284712 347.4626402 -121.68365644 347.83686154 -117.21960449 347.73498535 C-116.45508705 347.74152303 -115.6905696 347.74806071 -114.90288496 347.7547965 C-112.35045534 347.76932054 -109.80033492 347.74108895 -107.24804688 347.71289062 C-105.4145519 347.71447296 -103.58105759 347.71866928 -101.74757385 347.72528076 C-96.77422367 347.73554093 -91.80170246 347.7084949 -86.82848549 347.67422676 C-81.62229068 347.64413079 -76.4161061 347.64650222 -71.20983887 347.64489746 C-62.46706005 347.63751447 -53.72459547 347.6075932 -44.98193359 347.5625 C-33.76365967 347.50475551 -22.54563877 347.48405263 -11.32723236 347.4751358 C-1.67857079 347.46717106 7.9700359 347.44216828 17.61865807 347.41444206 C20.71822866 347.40625138 23.81779732 347.40039639 26.91737366 347.39485168 C31.78967318 347.38505006 36.66182022 347.36461709 41.53404427 347.33597565 C43.3214537 347.32694639 45.10888361 347.32125627 46.89631462 347.31916046 C49.33756335 347.31565623 51.77843387 347.29985789 54.21960449 347.28088379 C54.92564206 347.28261675 55.63167962 347.28434972 56.35911226 347.2861352 C60.59303139 347.23682627 64.09167769 346.64952059 68 345 C69.04675713 343.33317313 69.04675713 343.33317313 69 341 C69.06058594 340.37351562 69.12117188 339.74703125 69.18359375 339.1015625 C69.41301866 335.36124129 69.47219293 333.61385081 67.125 330.5625 C63.46241525 327.86942298 61.25975033 327.87187245 56.72564697 327.86196899 C56.07480314 327.85914771 55.42395931 327.85632643 54.75339293 327.85341966 C52.5624714 327.84505615 50.37160028 327.84373391 48.18066406 327.84228516 C46.61376808 327.83761816 45.04687345 327.83247478 43.47998047 327.82688904 C40.10018287 327.81559698 36.72039415 327.8071681 33.3405838 327.80076981 C27.99555668 327.79010137 22.65059311 327.7698591 17.30560303 327.74765015 C2.10448115 327.6856887 -13.09663742 327.63172283 -28.29785156 327.59863281 C-36.68914132 327.58028625 -45.08032505 327.55134873 -53.47153687 327.5106281 C-57.91285243 327.48955647 -62.35403435 327.47410064 -66.79540253 327.47182083 C-70.9749592 327.46967298 -75.15423776 327.4537897 -79.33370972 327.42743111 C-80.86633012 327.42024152 -82.39898424 327.4181355 -83.93161774 327.42153358 C-86.02731063 327.42543724 -88.12211916 327.41094636 -90.2177124 327.39199829 C-91.38947903 327.38868814 -92.56124565 327.385378 -93.76852036 327.38196754 C-98.7377285 326.79459691 -101.97222884 325.13888156 -105.3125 321.4375 C-108.09755177 317.41464744 -108.14840517 314.52119051 -108.14717102 309.75204468 C-108.15084771 308.99643962 -108.1545244 308.24083455 -108.1583125 307.46233237 C-108.16937275 304.916776 -108.17319717 302.37126042 -108.17700195 299.82568359 C-108.18326495 298.00587839 -108.18991161 296.18607448 -108.19691467 294.36627197 C-108.21434225 289.41147027 -108.22488172 284.45667824 -108.2331202 279.50185347 C-108.23826779 276.40653407 -108.2443437 273.31121769 -108.25063133 270.21590042 C-108.26969032 260.53243041 -108.28391863 250.84896805 -108.2922433 241.16548288 C-108.30201225 229.98613329 -108.32831993 218.80698188 -108.36874419 207.62770212 C-108.39890988 198.98896535 -108.4137127 190.35028536 -108.41702431 181.71149695 C-108.41937474 176.55129248 -108.42833388 171.39129956 -108.45348549 166.23115158 C-108.47677835 161.3736457 -108.4809945 156.51649045 -108.47072411 151.65894318 C-108.47022889 149.87880156 -108.47654503 148.09864262 -108.49028015 146.31855392 C-108.50802473 143.88190408 -108.50088108 141.44650901 -108.48774719 139.00985718 C-108.49871644 138.31080777 -108.50968568 137.61175835 -108.52098733 136.89152563 C-108.43929301 130.58318523 -106.13962446 125.91785887 -102.48387909 120.93242836 C-95.61715018 115.07123489 -86.7362744 116.17558109 -78.23632812 116.25537109 C-76.42548284 116.2505108 -74.61464292 116.24306783 -72.80381775 116.23324585 C-67.90072981 116.21448061 -62.99844406 116.23323294 -58.09541893 116.25991011 C-52.95688175 116.28259522 -47.81838246 116.27431977 -42.67980957 116.27041626 C-34.05154363 116.26865206 -25.42359248 116.29077533 -16.79541016 116.32763672 C-6.82962745 116.36996969 3.13569426 116.37699083 13.10154867 116.3645128 C22.70070049 116.35311067 32.29969049 116.36443421 41.89881897 116.38685989 C45.97838849 116.39613229 50.05785874 116.3979081 54.13743591 116.3936882 C58.94422128 116.38991188 63.75053965 116.40621009 68.55721855 116.43780899 C70.31798304 116.44627044 72.07879503 116.44801209 73.839571 116.44242859 C92.2355058 116.3929576 92.2355058 116.3929576 98.49652863 122.44707298 C103.47303044 128.05338753 104.2944238 132.27977162 104.26069641 139.62738037 C104.26452196 140.50720085 104.26834751 141.38702134 104.27228898 142.29350305 C104.28262396 145.24748694 104.27862583 148.20127664 104.2746582 151.15527344 C104.27900448 153.27093689 104.28418735 155.38659877 104.29014587 157.5022583 C104.30355832 163.25445894 104.30411188 169.00659395 104.30158257 174.75880718 C104.30051406 179.55991339 104.30539332 184.36100626 104.310188 189.16210961 C104.32129163 200.49057017 104.32171622 211.81899757 104.31567383 223.14746094 C104.30963668 234.83309417 104.32193657 246.51860691 104.3432439 258.20421958 C104.36086253 268.23577255 104.36686071 278.26728719 104.36360615 288.29885507 C104.36179307 294.29063709 104.36443178 300.28233324 104.37832069 306.27410126 C104.39089805 311.91133108 104.38895564 317.54837333 104.37590981 323.18560028 C104.37354403 325.25276757 104.37627873 327.31994805 104.38453293 329.38710022 C104.39500218 332.213179 104.38689802 335.03862867 104.3742218 337.86468506 C104.38159609 338.67909868 104.38897037 339.4935123 104.39656812 340.33260512 C104.31272634 349.242886 101.27748568 355.52262557 95.1875 362.015625 C88.04065374 368.49883554 80.22625292 369.1491803 70.97315979 369.14717102 C70.06248888 369.15084771 69.15181798 369.1545244 68.21355098 369.1583125 C65.16132318 369.16932781 62.10912945 369.17318947 59.05688477 369.17700195 C56.86886487 369.18326801 54.68084604 369.18991494 52.49282837 369.19691467 C45.30902851 369.21793284 38.12522847 369.22831196 30.94140625 369.23828125 C28.46848985 369.24232903 25.99557356 369.24644596 23.52265739 369.25063133 C11.90955675 369.26967459 0.29646245 369.28390992 -11.31665081 369.2922433 C-12.65226265 369.29321182 -13.98787449 369.29418607 -15.32348633 369.29516602 C-16.31724491 369.29589163 -16.31724491 369.29589163 -17.33107943 369.2966319 C-28.07089512 369.304938 -38.81059964 369.33028857 -49.55036675 369.36274669 C-60.58173847 369.39581405 -71.61305076 369.41349549 -82.6444717 369.41702431 C-88.83630717 369.41937774 -95.02796662 369.42837707 -101.21975517 369.45348549 C-107.0416892 369.47671406 -112.86333062 369.48102036 -118.68529892 369.47072411 C-120.82265634 369.47022744 -122.96002793 369.47658624 -125.09734154 369.49028015 C-128.0139727 369.50792298 -130.92954498 369.50093031 -133.84617615 369.48774719 C-135.11636688 369.50420106 -135.11636688 369.50420106 -136.41221803 369.52098733 C-141.74985099 369.46269029 -144.74629129 368.512589 -149 365 C-153.00775005 360.43945684 -153.14356387 356.27209508 -153.12025452 350.42610168 C-153.12110894 349.64766346 -153.12196337 348.86922524 -153.12284368 348.06719798 C-153.12449483 345.45078133 -153.11898306 342.83442835 -153.11352539 340.21801758 C-153.11324341 338.34567771 -153.11340146 336.47333773 -153.1139679 334.60099792 C-153.11425546 329.51041919 -153.10836528 324.4198639 -153.10139394 319.32929063 C-153.09515365 314.01214608 -153.09455606 308.69500104 -153.09336853 303.37785339 C-153.09025721 293.305647 -153.0820465 283.23345144 -153.07201904 273.16124982 C-153.06085172 261.69586176 -153.05534589 250.23047319 -153.05032361 238.76508105 C-153.03986374 215.17671469 -153.02226814 191.58835795 -153 168 C-153.58802399 168.01110306 -154.17604797 168.02220612 -154.78189087 168.03364563 C-160.91384662 168.14444628 -167.04551705 168.21975287 -173.17822266 168.2746582 C-175.46544957 168.29976942 -177.7525965 168.33386516 -180.03955078 168.37719727 C-183.33125565 168.43799581 -186.6218977 168.4662444 -189.9140625 168.48828125 C-191.44252304 168.52699089 -191.44252304 168.52699089 -193.00186157 168.56648254 C-200.94832766 168.56960684 -200.94832766 168.56960684 -204.63037109 165.59448242 C-207.87902254 162.03756722 -208.16572388 160.04769127 -208.5234375 155.265625 C-207.03502738 148.82325284 -200.33506963 144.7032478 -195.3125 141 C-193.79235176 139.85889439 -192.27284187 138.716938 -190.75390625 137.57421875 C-189.97160645 136.98817871 -189.18930664 136.40213867 -188.38330078 135.79833984 C-184.47154598 132.84669204 -180.61179378 129.82903676 -176.75 126.8125 C-170.54254079 121.97431377 -164.32120912 117.15539733 -158.078125 112.36328125 C-155.9615165 110.73822015 -153.84670141 109.11106948 -151.734375 107.48046875 C-145.53598706 102.6979376 -139.30251152 97.96819282 -133.03125 93.28125 C-129.27924621 90.45757705 -125.56117457 87.5915514 -121.84448242 84.72167969 C-118.35691199 82.03264334 -114.84446351 79.38070385 -111.3125 76.75 C-104.60722386 71.73878172 -98.01482937 66.58514941 -91.4140625 61.4375 C-87.60011164 58.46396695 -83.77334755 55.50770828 -79.9375 52.5625 C-78.92042969 51.78003906 -77.90335938 50.99757812 -76.85546875 50.19140625 C-74.98657736 48.75714077 -73.11430245 47.32727075 -71.23828125 45.90234375 C-70.41714844 45.27457031 -69.59601563 44.64679688 -68.75 44 C-68.04359375 43.46375 -67.3371875 42.9275 -66.609375 42.375 C-64.87442845 41.07346714 -64.87442845 41.07346714 -64 39 C-63.071875 38.54625 -62.14375 38.0925 -61.1875 37.625 C-58.10464319 36.05334751 -56.37045203 34.45511103 -54 32 C-53.34 32 -52.68 32 -52 32 C-51.67 31.01 -51.34 30.02 -51 29 C-49.2578125 27.4296875 -49.2578125 27.4296875 -47.125 25.875 C-46.07699219 25.09769531 -46.07699219 25.09769531 -45.0078125 24.3046875 C-43 23 -43 23 -40 22 C-38.3204639 20.34630292 -36.65591046 18.6773539 -35 17 C-32.8723662 15.29576267 -30.74300589 13.63219154 -28.5625 12 C-25.24469946 9.49894895 -21.95594858 6.98963306 -18.77734375 4.3125 C-12.48893251 -0.92342047 -7.98003362 -1.477784 0 0 Z " fill="#ECECEB" transform="translate(253,49)"/>
<path d="M0 0 C0.70125 0.0825 1.4025 0.165 2.125 0.25 C4.46419218 1.18567687 5.71454963 2.74137563 7.45166016 4.51513672 C10.46716426 7.40701562 13.81691023 9.89259486 17.125 12.4375 C17.91197266 13.04658203 18.69894531 13.65566406 19.50976562 14.28320312 C25.88415462 19.19395569 32.35316157 23.96927001 38.84936523 28.71704102 C47.37248357 34.96485656 55.69582264 41.46531932 64 48 C64.02578125 46.91460937 64.0515625 45.82921875 64.078125 44.7109375 C64.13443738 43.26558651 64.191784 41.82027556 64.25 40.375 C64.26417969 39.66214844 64.27835937 38.94929688 64.29296875 38.21484375 C64.52751986 33.10162961 65.66436832 30.07548983 69 26 C71.56018036 24.71990982 73.4216528 24.84492877 76.28833008 24.80712891 C77.39320267 24.79106598 78.49807526 24.77500305 79.63642883 24.75845337 C84.69161424 24.71407965 89.74666745 24.67294199 94.80200195 24.64990234 C97.47091561 24.63656713 100.13802187 24.60604198 102.80688477 24.56787109 C106.64883513 24.51318649 110.48974444 24.49124013 114.33203125 24.4765625 C115.52488235 24.45389313 116.71773346 24.43122375 117.94673157 24.40786743 C127.16093621 24.43143392 127.16093621 24.43143392 130.22924805 27.40771484 C132.96647846 31.41487224 133.0984049 33.36588979 132.99902344 38.21875 C132.97700867 39.5277124 132.9549939 40.8366748 132.93231201 42.18530273 C132.91952965 42.88775116 132.90674728 43.59019958 132.89357758 44.31393433 C132.82297235 48.82668418 132.81676246 53.34007379 132.79972458 57.85328674 C132.78112224 61.81347772 132.73948557 65.77077623 132.64697266 69.72998047 C132.55862608 73.56539849 132.53487534 77.39657554 132.55335236 81.23291016 C132.5490788 82.68742802 132.52206476 84.1420799 132.4708786 85.59570312 C132.09034748 93.546832 132.09034748 93.546832 135.26836586 100.58036041 C138.81365254 103.9614427 142.83134188 106.4600437 147 109 C148.61001334 110.16540814 150.21094627 111.3437441 151.79296875 112.546875 C153.25725773 113.61534403 154.72210502 114.68304833 156.1875 115.75 C163.35882823 121.00140522 170.41609794 126.37904004 177.40722656 131.86767578 C181.09800552 134.76055907 184.80760301 137.61780248 188.578125 140.40625 C189.31135986 140.94878418 190.04459473 141.49131836 190.80004883 142.05029297 C192.1841833 143.07001511 193.57183538 144.08498679 194.96362305 145.09423828 C202.4938559 150.64221205 202.4938559 150.64221205 203.46875 155.18359375 C203.53003318 159.60364285 203.46733926 161.40967672 200.625 165 C197.20707873 167.60413049 195.66655332 168.12477688 191.45849609 168.11352539 C190.51767181 168.11344986 189.57684753 168.11337433 188.60751343 168.11329651 C187.08089584 168.10555458 187.08089584 168.10555458 185.5234375 168.09765625 C183.96286118 168.09553383 183.96286118 168.09553383 182.37075806 168.09336853 C179.03880979 168.08775866 175.70692805 168.07520447 172.375 168.0625 C170.11979264 168.05748627 167.86458422 168.05292314 165.609375 168.04882812 C160.07289386 168.03778603 154.53645168 168.02103827 149 168 C149.00368717 168.9952151 149.00737434 169.9904302 149.01117325 171.01580334 C149.09992571 195.21860522 149.16568125 219.42138603 149.20724869 243.62431622 C149.22788409 255.32862312 149.25602347 267.03282259 149.30175781 278.73706055 C149.34159552 288.93709582 149.36742569 299.13705331 149.37635398 309.33716422 C149.3815739 314.73932098 149.39386308 320.14125518 149.42292023 325.54334068 C149.45004078 330.626504 149.45845175 335.70935276 149.45243073 340.79258156 C149.45353246 342.65945265 149.46150628 344.52633411 149.4768219 346.3931427 C149.49669743 348.9403954 149.49194844 351.48645746 149.48101807 354.03373718 C149.49266943 354.77401694 149.5043208 355.51429671 149.51632524 356.27700919 C149.45990343 361.13504607 148.42896549 363.57528762 145 367 C141.66661244 369.33477408 138.70461093 369.23306237 134.703125 369.1953125 C133.49785156 369.18886719 132.29257812 369.18242187 131.05078125 369.17578125 C129.79652344 369.15902344 128.54226563 369.14226562 127.25 369.125 C125.98027344 369.11597656 124.71054687 369.10695313 123.40234375 369.09765625 C120.26803907 369.07409005 117.13411459 369.04118832 114 369 C113.67 367.68 113.34 366.36 113 365 C113.88751953 364.29037109 113.88751953 364.29037109 114.79296875 363.56640625 C115.58316406 362.90511719 116.37335938 362.24382812 117.1875 361.5625 C117.96480469 360.92441406 118.74210937 360.28632813 119.54296875 359.62890625 C128.30888437 350.24979462 127.71447157 340.91252183 127.64355469 328.7265625 C127.65037602 326.76628266 127.65940113 324.80600944 127.67045593 322.8457489 C127.69428555 317.54253232 127.68776176 312.23973726 127.67596722 306.93649673 C127.66910843 301.38624094 127.6912349 295.83610426 127.71051025 290.28588867 C127.74277838 279.78297263 127.75062668 269.28019401 127.74893594 258.77723408 C127.74747283 243.33521607 127.7809511 227.89326462 127.81666946 212.45129395 C127.82189387 210.17700196 127.8271162 207.90270997 127.83233643 205.62841797 C127.83494138 204.51869251 127.83754633 203.40896706 127.84023023 202.26561356 C127.85490343 195.65166662 127.86181354 189.03776717 127.86198473 182.42380428 C127.86262922 178.32331701 127.86696747 174.22283853 127.87195778 170.12235451 C127.87332496 168.21349951 127.87293524 166.30464238 127.87071037 164.39578819 C127.86782595 161.80200014 127.87089562 159.20828598 127.87542725 156.61450195 C127.87299475 155.84925516 127.87056226 155.08400837 127.86805606 154.29557228 C127.88602049 149.11397951 127.88602049 149.11397951 129 148 C131.29151417 147.91209025 133.58572524 147.89305962 135.87890625 147.90234375 C136.90889992 147.90446617 136.90889992 147.90446617 137.95970154 147.90663147 C140.16067801 147.91224521 142.36155409 147.92479993 144.5625 147.9375 C146.05143083 147.94251324 147.54036324 147.94707645 149.02929688 147.95117188 C152.68623075 147.96221907 156.34310558 147.97949287 160 148 C160 147.34 160 146.68 160 146 C159.42000244 145.72704102 158.84000488 145.45408203 158.24243164 145.17285156 C156.02497293 144.01306151 154.12670769 142.72740747 152.12109375 141.234375 C150.99985107 140.40353394 150.99985107 140.40353394 149.85595703 139.5559082 C148.6588208 138.66198364 148.6588208 138.66198364 147.4375 137.75 C145.73568271 136.48827366 144.03385962 135.22655514 142.33203125 133.96484375 C140.55462326 132.64331556 138.7772801 131.32170018 137 130 C133.54425966 127.43398149 130.08534251 124.87230741 126.625 122.3125 C125.83536865 121.72500977 125.0457373 121.13751953 124.23217773 120.53222656 C121.23396629 118.31382918 118.30688228 116.17976884 115.0859375 114.29296875 C113 113 113 113 111 110 C110.75949097 107.17158508 110.75949097 107.17158508 110.77294922 103.69262695 C110.77310028 102.39150467 110.77325134 101.09038239 110.77340698 99.74983215 C110.78362031 98.32931363 110.7940523 96.90879667 110.8046875 95.48828125 C110.80841817 94.03525487 110.81126489 92.58222597 110.81326294 91.12919617 C110.82089519 87.30688518 110.84054008 83.48472646 110.8626709 79.66247559 C110.88313817 75.7613328 110.89226654 71.86016539 110.90234375 67.95898438 C110.92378646 60.30591217 110.95896516 52.65299683 111 45 C103.08 45 95.16 45 87 45 C87.04640625 47.24039063 87.0928125 49.48078125 87.140625 51.7890625 C87.1718738 53.97344704 87.19613098 56.15780611 87.21972656 58.34228516 C87.23976791 59.85346736 87.26700905 61.36457272 87.30175781 62.87548828 C87.35061109 65.05520643 87.37304224 67.23389431 87.390625 69.4140625 C87.41157227 70.7232666 87.43251953 72.0324707 87.45410156 73.38134766 C86.92074474 77.63157069 85.75363288 79.74964052 83 83 C79.06993988 84.33222377 76.84751187 84.8223456 73.04296875 83.12890625 C70.58347643 81.5441091 68.30907725 79.79816073 66 78 C64.82496667 77.12484497 63.64771017 76.25267029 62.46875 75.3828125 C54.09157176 69.18127854 45.82792508 62.82738144 37.5546875 56.48828125 C31.63292605 51.95121677 25.70961368 47.4160029 19.76293945 42.91162109 C15.56720857 39.73293134 11.39641907 36.53353648 7.28515625 33.24609375 C6.55820557 32.6744751 5.83125488 32.10285645 5.08227539 31.51391602 C3.73000318 30.44957045 2.38854291 29.37128865 1.06030273 28.27709961 C-0.9112574 26.67384792 -0.9112574 26.67384792 -4 25 C-8.30626931 25.697267 -11.08910122 28.55737561 -14.3125 31.375 C-18.89759973 35.30385598 -23.58982602 39.02539851 -28.4375 42.625 C-34.88584995 47.4175435 -41.29921559 52.25257969 -47.6875 57.125 C-49.04029053 58.15633057 -49.04029053 58.15633057 -50.42041016 59.20849609 C-55.22770034 62.87626741 -60.02549266 66.55580823 -64.8125 70.25 C-70.00615873 74.25330673 -75.24541414 78.1919176 -80.49731445 82.11816406 C-87.10119522 87.06151115 -93.65764121 92.06630013 -100.21411133 97.07226562 C-105.51767155 101.11841012 -110.84067697 105.13626059 -116.1875 109.125 C-122.48847354 113.83027761 -128.70472705 118.63749764 -134.90087891 123.47973633 C-142.00732204 129.02613504 -149.17796089 134.48669374 -156.36010742 139.93457031 C-157.63785034 140.90475098 -157.63785034 140.90475098 -158.94140625 141.89453125 C-159.70138916 142.47050049 -160.46137207 143.04646973 -161.24438477 143.63989258 C-162.92460093 144.88262465 -162.92460093 144.88262465 -164 146 C-162.81241089 146.01401855 -162.81241089 146.01401855 -161.60083008 146.02832031 C-158.00409292 146.08209344 -154.40864648 146.16572963 -150.8125 146.25 C-149.56662109 146.26417969 -148.32074219 146.27835938 -147.03710938 146.29296875 C-145.2340332 146.34130859 -145.2340332 146.34130859 -143.39453125 146.390625 C-142.28956299 146.41157227 -141.18459473 146.43251953 -140.04614258 146.45410156 C-136.19914891 147.14352032 -134.70534984 148.18261425 -132 151 C-131.50815223 153.75738357 -131.34492895 155.89950737 -131.40113831 158.65377808 C-131.39701602 159.42883733 -131.39289374 160.20389658 -131.38864654 161.00244248 C-131.38074282 163.60230591 -131.40843254 166.20057929 -131.43579102 168.80029297 C-131.43716136 170.66304494 -131.43625108 172.52579978 -131.43322754 174.3885498 C-131.43120973 178.40145923 -131.44456923 182.41392275 -131.46954536 186.426754 C-131.50813678 192.77174813 -131.50780386 199.11637011 -131.50120544 205.4614563 C-131.49098082 221.22252595 -131.53408805 236.98340519 -131.58410645 252.74438477 C-131.62227413 264.99029593 -131.64656924 277.23591434 -131.63021225 289.48188889 C-131.62337196 295.78954608 -131.64491502 302.09627622 -131.68789494 308.40378165 C-131.7086095 312.32870038 -131.70450824 316.25330713 -131.69358063 320.17825317 C-131.6935957 321.99795683 -131.70391582 323.81769408 -131.725317 325.63727188 C-131.75313018 328.12316762 -131.74399758 330.60633075 -131.72584534 333.09225464 C-131.74284204 333.81132929 -131.75983873 334.53040394 -131.77735049 335.27126873 C-131.70605366 339.14803608 -130.95160333 341.58332696 -128.44090939 344.4482975 C-124.99284712 347.4626402 -121.68365644 347.83686154 -117.21960449 347.73498535 C-116.45508705 347.74152303 -115.6905696 347.74806071 -114.90288496 347.7547965 C-112.35045534 347.76932054 -109.80033492 347.74108895 -107.24804688 347.71289062 C-105.4145519 347.71447296 -103.58105759 347.71866928 -101.74757385 347.72528076 C-96.77422367 347.73554093 -91.80170246 347.7084949 -86.82848549 347.67422676 C-81.62229068 347.64413079 -76.4161061 347.64650222 -71.20983887 347.64489746 C-62.46706005 347.63751447 -53.72459547 347.6075932 -44.98193359 347.5625 C-33.76365967 347.50475551 -22.54563877 347.48405263 -11.32723236 347.4751358 C-1.67857079 347.46717106 7.9700359 347.44216828 17.61865807 347.41444206 C20.71822866 347.40625138 23.81779732 347.40039639 26.91737366 347.39485168 C31.78967318 347.38505006 36.66182022 347.36461709 41.53404427 347.33597565 C43.3214537 347.32694639 45.10888361 347.32125627 46.89631462 347.31916046 C49.33756335 347.31565623 51.77843387 347.29985789 54.21960449 347.28088379 C54.92564206 347.28261675 55.63167962 347.28434972 56.35911226 347.2861352 C60.59964665 347.23674922 64.05322554 346.54252651 68 345 C68.66 341.37 69.32 337.74 70 334 C71.98 334.33 73.96 334.66 76 335 C76.33 336.32 76.66 337.64 77 339 C77.66 339 78.32 339 79 339 C79 339.66 79 340.32 79 341 C79.66 341 80.32 341 81 341 C82.70884005 342.62339805 84.37446717 344.29319053 86 346 C86.66 346.66 87.32 347.32 88 348 C88 348.99 88 349.98 88 351 C88.99 351 89.98 351 91 351 C92.6875 352.375 92.6875 352.375 94 354 C94 354.66 94 355.32 94 356 C95.32 356.66 96.64 357.32 98 358 C93.9443881 363.57646636 89.67758106 366.78025002 82.93527126 368.53840923 C78.93536161 369.16742141 75.01638589 369.14804899 70.97315979 369.14717102 C70.06248888 369.15084771 69.15181798 369.1545244 68.21355098 369.1583125 C65.16132318 369.16932781 62.10912945 369.17318947 59.05688477 369.17700195 C56.86886487 369.18326801 54.68084604 369.18991494 52.49282837 369.19691467 C45.30902851 369.21793284 38.12522847 369.22831196 30.94140625 369.23828125 C28.46848985 369.24232903 25.99557356 369.24644596 23.52265739 369.25063133 C11.90955675 369.26967459 0.29646245 369.28390992 -11.31665081 369.2922433 C-12.65226265 369.29321182 -13.98787449 369.29418607 -15.32348633 369.29516602 C-16.31724491 369.29589163 -16.31724491 369.29589163 -17.33107943 369.2966319 C-28.07089512 369.304938 -38.81059964 369.33028857 -49.55036675 369.36274669 C-60.58173847 369.39581405 -71.61305076 369.41349549 -82.6444717 369.41702431 C-88.83630717 369.41937774 -95.02796662 369.42837707 -101.21975517 369.45348549 C-107.0416892 369.47671406 -112.86333062 369.48102036 -118.68529892 369.47072411 C-120.82265634 369.47022744 -122.96002793 369.47658624 -125.09734154 369.49028015 C-128.0139727 369.50792298 -130.92954498 369.50093031 -133.84617615 369.48774719 C-135.11636688 369.50420106 -135.11636688 369.50420106 -136.41221803 369.52098733 C-141.74985099 369.46269029 -144.74629129 368.512589 -149 365 C-153.00775005 360.43945684 -153.14356387 356.27209508 -153.12025452 350.42610168 C-153.12110894 349.64766346 -153.12196337 348.86922524 -153.12284368 348.06719798 C-153.12449483 345.45078133 -153.11898306 342.83442835 -153.11352539 340.21801758 C-153.11324341 338.34567771 -153.11340146 336.47333773 -153.1139679 334.60099792 C-153.11425546 329.51041919 -153.10836528 324.4198639 -153.10139394 319.32929063 C-153.09515365 314.01214608 -153.09455606 308.69500104 -153.09336853 303.37785339 C-153.09025721 293.305647 -153.0820465 283.23345144 -153.07201904 273.16124982 C-153.06085172 261.69586176 -153.05534589 250.23047319 -153.05032361 238.76508105 C-153.03986374 215.17671469 -153.02226814 191.58835795 -153 168 C-153.58802399 168.01110306 -154.17604797 168.02220612 -154.78189087 168.03364563 C-160.91384662 168.14444628 -167.04551705 168.21975287 -173.17822266 168.2746582 C-175.46544957 168.29976942 -177.7525965 168.33386516 -180.03955078 168.37719727 C-183.33125565 168.43799581 -186.6218977 168.4662444 -189.9140625 168.48828125 C-191.44252304 168.52699089 -191.44252304 168.52699089 -193.00186157 168.56648254 C-200.94832766 168.56960684 -200.94832766 168.56960684 -204.63037109 165.59448242 C-207.87902254 162.03756722 -208.16572388 160.04769127 -208.5234375 155.265625 C-207.03502738 148.82325284 -200.33506963 144.7032478 -195.3125 141 C-193.79235176 139.85889439 -192.27284187 138.716938 -190.75390625 137.57421875 C-189.97160645 136.98817871 -189.18930664 136.40213867 -188.38330078 135.79833984 C-184.47154598 132.84669204 -180.61179378 129.82903676 -176.75 126.8125 C-170.54254079 121.97431377 -164.32120912 117.15539733 -158.078125 112.36328125 C-155.9615165 110.73822015 -153.84670141 109.11106948 -151.734375 107.48046875 C-145.53598706 102.6979376 -139.30251152 97.96819282 -133.03125 93.28125 C-129.27924621 90.45757705 -125.56117457 87.5915514 -121.84448242 84.72167969 C-118.35691199 82.03264334 -114.84446351 79.38070385 -111.3125 76.75 C-104.60722386 71.73878172 -98.01482937 66.58514941 -91.4140625 61.4375 C-87.60011164 58.46396695 -83.77334755 55.50770828 -79.9375 52.5625 C-78.92042969 51.78003906 -77.90335938 50.99757812 -76.85546875 50.19140625 C-74.98657736 48.75714077 -73.11430245 47.32727075 -71.23828125 45.90234375 C-70.41714844 45.27457031 -69.59601563 44.64679688 -68.75 44 C-68.04359375 43.46375 -67.3371875 42.9275 -66.609375 42.375 C-64.87442845 41.07346714 -64.87442845 41.07346714 -64 39 C-63.071875 38.54625 -62.14375 38.0925 -61.1875 37.625 C-58.10464319 36.05334751 -56.37045203 34.45511103 -54 32 C-53.34 32 -52.68 32 -52 32 C-51.67 31.01 -51.34 30.02 -51 29 C-49.2578125 27.4296875 -49.2578125 27.4296875 -47.125 25.875 C-46.07699219 25.09769531 -46.07699219 25.09769531 -45.0078125 24.3046875 C-43 23 -43 23 -40 22 C-38.3204639 20.34630292 -36.65591046 18.6773539 -35 17 C-32.8723662 15.29576267 -30.74300589 13.63219154 -28.5625 12 C-25.24469946 9.49894895 -21.95594858 6.98963306 -18.77734375 4.3125 C-12.48893251 -0.92342047 -7.98003362 -1.477784 0 0 Z " fill="#27B1B1" transform="translate(253,49)"/>
<path d="M0 0 C1.98 0.33 3.96 0.66 6 1 C6.495 2.98 6.495 2.98 7 5 C7.66 5 8.32 5 9 5 C9 5.66 9 6.32 9 7 C9.66 7 10.32 7 11 7 C12.70884005 8.62339805 14.37446717 10.29319053 16 12 C16.99 12.99 16.99 12.99 18 14 C18 14.99 18 15.98 18 17 C18.99 17 19.98 17 21 17 C22.6875 18.375 22.6875 18.375 24 20 C24 20.66 24 21.32 24 22 C25.32 22.66 26.64 23.32 28 24 C24.39578855 28.95579074 21.00454034 32.29807614 15 34 C10.60443298 34.51526982 6.36692404 34.78558422 2 34 C1.31421875 33.3090625 0.6284375 32.618125 -0.078125 31.90625 C-0.71234375 31.2771875 -1.3465625 30.648125 -2 30 C-4.43086745 30.16542406 -4.43086745 30.16542406 -7 31 C-19.29876768 31.94965168 -19.29876768 31.94965168 -23.625 29.125 C-28.19695802 26.24635976 -32.71135463 25.7268301 -38 25 C-38.33 24.01 -38.66 23.02 -39 22 C-40.75901116 21.11324442 -40.75901116 21.11324442 -42.9375 20.5625 C-48.09001816 19.00514724 -53.02458294 17.04625712 -58 15 C-58 14.67 -58 14.34 -58 14 C-57.38691986 13.99191315 -56.77383972 13.98382629 -56.1421814 13.97549438 C-49.75034145 13.88931111 -43.35880671 13.78980147 -36.96728516 13.68261719 C-34.58322279 13.64437886 -32.19910375 13.60951707 -29.81494141 13.578125 C-26.38423431 13.53236317 -22.95391568 13.47438611 -19.5234375 13.4140625 C-18.46071625 13.40251129 -17.397995 13.39096008 -16.30307007 13.37905884 C-11.16236507 13.27697428 -6.80677571 13.05386968 -2 11 C-1.34 7.37 -0.68 3.74 0 0 Z " fill="#6BAAAB" transform="translate(323,383)"/>
<path d="M0 0 C0.70762985 -0.00365067 1.4152597 -0.00730133 2.14433289 -0.01106262 C4.48383572 -0.01916979 6.82264626 -0.00555726 9.16210938 0.0090332 C10.78731282 0.00955179 12.4125169 0.00903414 14.03771973 0.00752258 C17.44402428 0.00761231 20.85009219 0.01804327 24.25634766 0.03613281 C28.62461531 0.05882009 32.99253713 0.0593642 37.36084747 0.05261517 C40.71684854 0.04927513 44.07277062 0.05590591 47.42875671 0.0657444 C49.03952115 0.0695961 50.65029436 0.07074474 52.26106262 0.06915855 C54.51145187 0.06878807 56.76139627 0.08140306 59.01171875 0.09765625 C60.29284546 0.10226364 61.57397217 0.10687103 62.8939209 0.11161804 C66.00585938 0.37231445 66.00585938 0.37231445 69.00585938 2.37231445 C69.67475206 9.39568767 69.67475206 9.39568767 67.91136169 11.97035217 C65.03983666 14.08306007 62.65247786 13.76122115 59.11938477 13.77636719 C58.42311478 13.78323044 57.72684479 13.79009369 57.00947571 13.79716492 C54.70728171 13.81546998 52.40576681 13.8115903 50.10351562 13.8059082 C48.50312579 13.81046844 46.90273792 13.81577354 45.30235291 13.8217926 C41.94733732 13.83073109 38.59255967 13.82829254 35.23754883 13.81835938 C30.93867308 13.80687185 26.64061901 13.82707335 22.34185123 13.85627651 C19.03640019 13.8746264 15.73114646 13.87434848 12.42565727 13.86863899 C10.84082321 13.86848561 9.25597592 13.87454398 7.67119026 13.88693047 C5.45417956 13.90181577 3.23869168 13.89118366 1.02172852 13.87402344 C-0.23941269 13.87385727 -1.50055389 13.8736911 -2.7999115 13.8735199 C-6.56511915 13.2827224 -7.75919834 12.41072587 -9.99414062 9.37231445 C-10.43479059 6.28776473 -10.64511783 4.36371352 -8.90393066 1.71199036 C-5.99219682 -0.33052719 -3.52469811 -0.0017317 0 0 Z " fill="#53A038" transform="translate(252.994140625,211.627685546875)"/>
<path d="M0 0 C0.70762985 -0.00525696 1.4152597 -0.01051392 2.14433289 -0.01593018 C4.48381614 -0.02913588 6.82261918 -0.02039056 9.16210938 -0.01025391 C10.78731416 -0.01227449 12.41251805 -0.0151858 14.03771973 -0.01895142 C17.44401684 -0.02337552 20.85007797 -0.01694107 24.25634766 -0.00292969 C28.62470534 0.01416243 32.99251009 0.00432168 37.36084747 -0.01364708 C40.71685967 -0.02448268 44.07274058 -0.02103965 47.42875671 -0.0132637 C49.03952601 -0.01126107 50.6503072 -0.01372321 52.26106262 -0.02070236 C54.51160298 -0.02831338 56.76124535 -0.01671869 59.01171875 0 C60.29284546 0.00238678 61.57397217 0.00477356 62.8939209 0.00723267 C66.00585938 0.38818359 66.00585938 0.38818359 67.91955566 1.69369507 C69.75989351 4.56437601 69.35883893 7.09370779 69.00585938 10.38818359 C67.91955566 12.0816803 67.91955566 12.0816803 66.00585938 13.38818359 C62.8939209 13.77586365 62.8939209 13.77586365 59.01171875 13.79223633 C58.3040889 13.79909958 57.59645905 13.80596283 56.86738586 13.81303406 C54.52792304 13.8313382 52.18912844 13.82746008 49.84960938 13.82177734 C48.2244037 13.8263371 46.59919995 13.83164206 44.97399902 13.83766174 C41.56771003 13.84659967 38.16165541 13.8441617 34.75537109 13.83422852 C30.38689996 13.82273174 26.0192363 13.84295702 21.65087128 13.87214565 C18.29484914 13.89047686 14.93902166 13.89022152 11.58296204 13.88450813 C9.97218187 13.88435457 8.36138879 13.89042764 6.75065613 13.90279961 C4.49991933 13.91765243 2.25068912 13.90707732 0 13.88989258 C-1.28112671 13.88972641 -2.56225342 13.88956024 -3.88220215 13.88938904 C-6.99414062 13.38818359 -6.99414062 13.38818359 -8.90783691 11.54823303 C-10.37712267 8.62664689 -10.40602234 6.61459033 -9.99414062 3.38818359 C-7.46613913 -0.4733465 -4.32159971 0.00805128 0 0 Z " fill="#4F9934" transform="translate(252.994140625,319.61181640625)"/>
<path d="M0 0 C0.69787628 -0.00511093 1.39575256 -0.01022186 2.11477661 -0.01548767 C4.42165704 -0.02938817 6.72823892 -0.02842681 9.03515625 -0.02612305 C10.63794059 -0.03000933 12.24072389 -0.03434386 13.84350586 -0.03910828 C17.20267069 -0.04657116 20.56173041 -0.04627845 23.92089844 -0.04101562 C28.22869767 -0.03521655 32.53606756 -0.05216194 36.84379578 -0.0753603 C40.15346803 -0.09008003 43.46303641 -0.09097184 46.7727356 -0.08785057 C48.3611842 -0.08836453 49.9496385 -0.09361627 51.53805542 -0.10366249 C53.75742655 -0.11597785 55.9759552 -0.10926594 58.1953125 -0.09765625 C59.45867432 -0.09828568 60.72203613 -0.0989151 62.02368164 -0.0995636 C65.09765625 0.2746582 65.09765625 0.2746582 67.00170898 1.57917786 C68.87898038 4.48340222 68.51444995 6.94030861 68.09765625 10.2746582 C65.75919566 12.7671342 64.31562625 13.24820343 60.90342712 13.66233826 C59.64228592 13.66774124 58.38114471 13.67314423 57.08178711 13.67871094 C56.3837648 13.68557419 55.68574249 13.69243744 54.96656799 13.69950867 C52.6650037 13.7177738 50.36412103 13.71394084 48.0625 13.70825195 C46.46114378 13.71281302 44.85978952 13.71811837 43.25843811 13.72413635 C39.90520261 13.73306617 36.55220531 13.73064486 33.19897461 13.72070312 C28.89890898 13.70919718 24.59966255 13.72944968 20.29970455 13.75862026 C16.99429596 13.77694986 13.68908503 13.77669663 10.38363838 13.77098274 C8.79797781 13.77082922 7.21230411 13.77689945 5.62669182 13.78927422 C3.41197834 13.80412706 1.19879587 13.79355276 -1.01586914 13.77636719 C-2.27621475 13.77620102 -3.53656036 13.77603485 -4.83509827 13.77586365 C-7.90234375 13.2746582 -7.90234375 13.2746582 -9.84056091 11.46986389 C-11.45313548 8.13591204 -10.81157735 5.78170209 -9.90234375 2.2746582 C-6.22006056 -0.18019726 -4.39389142 0.01602421 0 0 Z " fill="#4F9B36" transform="translate(253.90234375,265.725341796875)"/>
<path d="M0 0 C3.25073242 0.82104492 3.25073242 0.82104492 4.25073242 1.82104492 C4.81513373 6.89528145 5.0227757 8.80686656 1.87182617 12.94604492 C0.82935777 13.92471924 -0.23296451 14.88257396 -1.31176758 15.82104492 C-2.42557708 16.85684063 -3.53756495 17.89459869 -4.64770508 18.93432617 C-5.18621094 19.42884277 -5.7247168 19.92335937 -6.27954102 20.43286133 C-8.13426555 22.18468254 -9.7939135 24.05814233 -11.43676758 26.00854492 C-14.01319019 28.99342477 -16.61659333 31.9423123 -19.31176758 34.82104492 C-20.01430664 35.58416992 -20.7168457 36.34729492 -21.44067383 37.13354492 C-23.74926758 38.82104492 -23.74926758 38.82104492 -26.78051758 39.29760742 C-30.33910763 38.72636007 -31.32591935 37.86135772 -33.68676758 35.19604492 C-36.22350675 32.42026687 -38.68881491 30.02543946 -41.68676758 27.75854492 C-44.43018746 25.4608523 -44.75514723 24.80177272 -45.87426758 21.13354492 C-45.74926758 17.82104492 -45.74926758 17.82104492 -44.68676758 15.88354492 C-41.65300064 14.21986628 -40.19027049 14.17179909 -36.74926758 14.82104492 C-34.52499444 16.43869812 -32.56605907 18.19193118 -30.58129883 20.09448242 C-28.66104974 22.00045391 -28.66104974 22.00045391 -25.74926758 23.82104492 C-25.50845459 23.26006104 -25.2676416 22.69907715 -25.01953125 22.12109375 C-22.32191333 17.23655437 -17.93841789 13.46797068 -14.06176758 9.50854492 C-12.73242188 8.0921875 -12.73242188 8.0921875 -11.3762207 6.6472168 C-10.50545898 5.75969727 -9.63469727 4.87217773 -8.73754883 3.95776367 C-7.94904541 3.14009521 -7.16054199 2.32242676 -6.34814453 1.47998047 C-3.74926758 -0.17895508 -3.74926758 -0.17895508 0 0 Z " fill="#58A03B" transform="translate(225.749267578125,196.178955078125)"/>
<path d="M0 0 C2.36279297 0.42578125 2.36279297 0.42578125 5.36279297 2.42578125 C6.01595414 6.39110163 6.36985451 8.89996638 4.11914062 12.31005859 C2.38677548 14.19069154 0.57939886 15.90700454 -1.32470703 17.61328125 C-1.95054687 18.20302734 -2.57638672 18.79277344 -3.22119141 19.40039062 C-4.44974637 20.55690467 -5.68497544 21.70637588 -6.92724609 22.84814453 C-11.53304691 27.09752843 -15.49756731 31.63008586 -19.37939453 36.53515625 C-22.60732908 39.23813259 -24.42459899 39.64610594 -28.63720703 39.42578125 C-31.65792785 37.52129877 -34.03277315 35.10371614 -36.51220703 32.55078125 C-37.18767578 31.88691406 -37.86314453 31.22304688 -38.55908203 30.5390625 C-40.27043021 28.85176942 -41.9594206 27.14632896 -43.63720703 25.42578125 C-43.96720703 25.09578125 -44.29720703 24.76578125 -44.63720703 24.42578125 C-44.03720703 17.82578125 -44.03720703 17.82578125 -41.63720703 15.42578125 C-39.01220703 14.86328125 -39.01220703 14.86328125 -35.63720703 15.42578125 C-33.4115183 17.11292904 -31.44938347 18.9261029 -29.46923828 20.89453125 C-27.65151453 22.74643632 -27.65151453 22.74643632 -24.63720703 22.42578125 C-22.22551578 20.34933418 -22.22551578 20.34933418 -19.70751953 17.61328125 C-18.73773149 16.61042168 -17.76767086 15.60782565 -16.79736328 14.60546875 C-15.2765783 13.01638357 -13.76008199 11.42353347 -12.24902344 9.82519531 C-10.78773307 8.28534095 -9.3113 6.76131928 -7.83251953 5.23828125 C-6.95611816 4.31660156 -6.0797168 3.39492188 -5.17675781 2.4453125 C-2.63720703 0.42578125 -2.63720703 0.42578125 0 0 Z " fill="#52993A" transform="translate(224.63720703125,304.57421875)"/>
<path d="M0 0 C3.25 0.875 3.25 0.875 4.25 1.875 C4.67768742 5.93557254 4.73954788 8.14120685 2.44140625 11.5859375 C1.14009766 12.90464844 1.14009766 12.90464844 -0.1875 14.25 C-0.66469482 14.73823242 -1.14188965 15.22646484 -1.63354492 15.72949219 C-2.71237594 16.82839212 -3.79892203 17.91975201 -4.89160156 19.00488281 C-6.98483776 21.11131861 -9.01872646 23.26788339 -11.0546875 25.4296875 C-12.55594176 26.99608655 -14.05854198 28.56119675 -15.5625 30.125 C-16.27913818 30.8886084 -16.99577637 31.6522168 -17.73413086 32.43896484 C-22.89250347 37.69878805 -22.89250347 37.69878805 -27.01953125 38.546875 C-30.04494882 37.80242318 -31.39244684 37.0213172 -33.625 34.875 C-34.62660156 33.91980469 -34.62660156 33.91980469 -35.6484375 32.9453125 C-36.34195313 32.26210938 -37.03546875 31.57890625 -37.75 30.875 C-38.50539062 30.19179688 -39.26078125 29.50859375 -40.0390625 28.8046875 C-40.76867187 28.12664062 -41.49828125 27.44859375 -42.25 26.75 C-42.9203125 26.12867188 -43.590625 25.50734375 -44.28125 24.8671875 C-46.14490884 22.33935237 -46.15944537 20.95083353 -45.75 17.875 C-44.125 15.5 -44.125 15.5 -41.75 13.875 C-37.08956564 13.55724311 -34.74127791 15.51133616 -31.375 18.4375 C-30.15602918 19.5720103 -28.94404829 20.71428808 -27.75 21.875 C-24.68443143 20.50921085 -22.60041362 18.96341974 -20.25390625 16.57421875 C-19.61259766 15.92646484 -18.97128906 15.27871094 -18.31054688 14.61132812 C-17.65119141 13.93521484 -16.99183594 13.25910156 -16.3125 12.5625 C-15.65701172 11.89798828 -15.00152344 11.23347656 -14.32617188 10.54882812 C-13.68357422 9.89720703 -13.04097656 9.24558594 -12.37890625 8.57421875 C-11.7554834 7.94322266 -11.13206055 7.31222656 -10.48974609 6.66210938 C-9.40726884 5.55016249 -8.33944238 4.42351065 -7.29541016 3.27539062 C-4.14006226 -0.13800208 -4.14006226 -0.13800208 0 0 Z " fill="#559D38" transform="translate(225.75,251.125)"/>
<path d="M0 0 C1.98 0.33 3.96 0.66 6 1 C6.495 2.98 6.495 2.98 7 5 C7.66 5 8.32 5 9 5 C9 5.66 9 6.32 9 7 C9.66 7 10.32 7 11 7 C12.70884005 8.62339805 14.37446717 10.29319053 16 12 C16.99 12.99 16.99 12.99 18 14 C18 14.99 18 15.98 18 17 C18.99 17 19.98 17 21 17 C22.6875 18.375 22.6875 18.375 24 20 C24 20.66 24 21.32 24 22 C25.32 22.66 26.64 23.32 28 24 C23.71858289 29.74933155 23.71858289 29.74933155 20.3125 30.9375 C18 31 18 31 16 30 C15.67 30.66 15.34 31.32 15 32 C13.16136495 30.88368586 11.32920277 29.75670373 9.5 28.625 C8.4790625 27.99851562 7.458125 27.37203125 6.40625 26.7265625 C5.6121875 26.15679687 4.818125 25.58703125 4 25 C4 24.34 4 23.68 4 23 C3.01 23 2.02 23 1 23 C1 22.34 1 21.68 1 21 C-0.32 21 -1.64 21 -3 21 C-4.01866229 19.34467377 -5.01810813 17.67739862 -6 16 C-8.08533633 15.12177688 -8.08533633 15.12177688 -10 15 C-10 15.66 -10 16.32 -10 17 C-13.35235862 17.79818062 -15.43972792 18.19462083 -18.73681641 17.04931641 C-22.4769489 15.84663127 -25.66151827 15.68012356 -29.5859375 15.5859375 C-30.28772125 15.56657135 -30.989505 15.5472052 -31.71255493 15.5272522 C-33.93324999 15.46792431 -36.15399823 15.42126083 -38.375 15.375 C-39.88934434 15.33677698 -41.40366794 15.29772278 -42.91796875 15.2578125 C-46.61178831 15.16226266 -50.3057647 15.07806063 -54 15 C-54 14.67 -54 14.34 -54 14 C-53.43703217 13.99191315 -52.87406433 13.98382629 -52.29403687 13.97549438 C-46.42122256 13.8892677 -40.54873876 13.7897566 -34.67626953 13.68261719 C-32.48622194 13.6443942 -30.296113 13.60952978 -28.10595703 13.578125 C-24.95322788 13.53232957 -21.80091862 13.47435851 -18.6484375 13.4140625 C-17.67321136 13.40251129 -16.69798523 13.39096008 -15.69320679 13.37905884 C-10.74927023 13.27234038 -6.63562635 12.93433896 -2 11 C-1.34 7.37 -0.68 3.74 0 0 Z " fill="#B2C7C9" transform="translate(323,383)"/>
<path d="M0 0 C0.33 0.66 0.66 1.32 1 2 C-2.70706399 4.39238601 -6.31817702 4.27518931 -10.58026123 4.24050903 C-11.73082422 4.24307231 -11.73082422 4.24307231 -12.9046309 4.24568737 C-15.4765545 4.24898336 -18.04821759 4.23797681 -20.62011719 4.22705078 C-22.46304824 4.22648669 -24.30597974 4.22680318 -26.14891052 4.22793579 C-31.15475162 4.22851039 -36.16049717 4.21673872 -41.16631603 4.20278788 C-46.39670008 4.19029839 -51.62708625 4.18911142 -56.85748291 4.18673706 C-66.76321691 4.18051705 -76.66890685 4.16409918 -86.57462144 4.14403808 C-97.85139795 4.12169529 -109.12817656 4.11068973 -120.40496969 4.10064721 C-143.60333757 4.07973342 -166.80166632 4.04454731 -190 4 C-189.67 3.01 -189.34 2.02 -189 1 C-187.55714347 1.00138269 -187.55714347 1.00138269 -186.08513832 1.00279331 C-162.70953028 1.02496582 -139.33392359 1.04141289 -115.95830727 1.05181217 C-104.65416719 1.0569745 -93.35003406 1.06401599 -82.04589844 1.07543945 C-72.19637878 1.08538822 -62.34686415 1.09185389 -52.49733961 1.09408849 C-47.27925265 1.09539527 -42.06118005 1.09847906 -36.84309769 1.10573006 C-31.93648818 1.1124933 -27.02989902 1.11461633 -22.12328529 1.11310768 C-20.31806007 1.11338387 -18.5128342 1.1153872 -16.70761299 1.11920547 C-14.25163399 1.12414745 -11.79573283 1.1229964 -9.3397522 1.12025452 C-8.61797055 1.12316736 -7.8961889 1.1260802 -7.15253508 1.12908131 C-3.45219926 1.16965021 -3.45219926 1.16965021 0 0 Z " fill="#122435" transform="translate(318,393)"/>
<path d="M0 0 C6.5652022 11.06651414 4.39726808 29.38196334 4.375 41.8125 C4.37545319 42.79879395 4.37590637 43.78508789 4.37637329 44.80126953 C4.35474611 60.86717713 3.34707631 76.24653452 0 92 C-0.34683838 93.7634375 -0.34683838 93.7634375 -0.70068359 95.5625 C-0.9477002 96.7484375 -1.1947168 97.934375 -1.44921875 99.15625 C-1.67311279 100.24744141 -1.89700684 101.33863281 -2.12768555 102.46289062 C-2.5594812 103.71875977 -2.5594812 103.71875977 -3 105 C-4.485 105.495 -4.485 105.495 -6 106 C-5.34 102.7 -4.68 99.4 -4 96 C-3.34 96 -2.68 96 -2 96 C-2.495 93.525 -2.495 93.525 -3 91 C-2.34 91 -1.68 91 -1 91 C-1.495 88.525 -1.495 88.525 -2 86 C-1.34 86 -0.68 86 0 86 C-0.309375 85.0409375 -0.309375 85.0409375 -0.625 84.0625 C-0.98143271 81.15163286 -0.81050516 79.70976353 -0.125 76.9375 C2.46500005 66.41738662 2.18643106 55.41978212 2.18530273 44.64770508 C2.18748042 42.33330628 2.20568592 40.01939269 2.22460938 37.70507812 C2.25512879 29.28294928 1.85961366 21.07654538 0.70195007 12.72810364 C0.11321989 8.45002416 -0.08850102 4.31696071 0 0 Z " fill="#1D1F2D" transform="translate(501,207)"/>
<path d="M0 0 C2.97 0 5.94 0 9 0 C9 0.66 9 1.32 9 2 C9.99 1.67 10.98 1.34 12 1 C12.87269531 1.63421875 13.74539063 2.2684375 14.64453125 2.921875 C18.91993245 5.56973698 21.79373746 5.46956484 26.6875 5.25 C27.82541992 5.22292969 27.82541992 5.22292969 28.98632812 5.1953125 C30.99133019 5.14576258 32.99575712 5.07415493 35 5 C38 5 38 5 39.6875 6.5 C40.120625 6.995 40.55375 7.49 41 8 C38.24521866 10.75478134 30.35182459 9.37088802 26.65039062 9.39379883 C18.6482993 9.29202239 13.00335553 8.00191745 6 4 C4.7525606 3.39056396 3.50306163 2.78529087 2.25 2.1875 C1.5075 1.795625 0.765 1.40375 0 1 C0 0.67 0 0.34 0 0 Z " fill="#3B9FA0" transform="translate(285,408)"/>
<path d="M0 0 C0.495 4.455 0.495 4.455 1 9 C0.505 8.01 0.505 8.01 0 7 C-1.32 7 -2.64 7 -4 7 C-5.01866229 5.34467377 -6.01810813 3.67739862 -7 2 C-9.08533633 1.12177688 -9.08533633 1.12177688 -11 1 C-11 1.66 -11 2.32 -11 3 C-14.35235862 3.79818062 -16.43972792 4.19462083 -19.73681641 3.04931641 C-23.4769489 1.84663127 -26.66151827 1.68012356 -30.5859375 1.5859375 C-31.28772125 1.56657135 -31.989505 1.5472052 -32.71255493 1.5272522 C-34.93324999 1.46792431 -37.15399823 1.42126083 -39.375 1.375 C-40.88934434 1.33677698 -42.40366794 1.29772278 -43.91796875 1.2578125 C-47.61178831 1.16226266 -51.3057647 1.07806063 -55 1 C-55 0.67 -55 0.34 -55 0 C-54.42814972 -0.01030746 -53.85629944 -0.02061493 -53.26712036 -0.03123474 C-47.33014214 -0.13918315 -41.39331929 -0.25379042 -35.45654297 -0.37231445 C-33.23912803 -0.41570078 -31.02167888 -0.45737308 -28.80419922 -0.49731445 C-25.62196528 -0.55492754 -22.43990416 -0.61864764 -19.2578125 -0.68359375 C-18.26194122 -0.70030624 -17.26606995 -0.71701874 -16.24002075 -0.73423767 C-15.31921722 -0.75418289 -14.3984137 -0.77412811 -13.44970703 -0.79467773 C-12.6369632 -0.81022202 -11.82421936 -0.8257663 -10.98684692 -0.84178162 C-4.35215122 -1.37012168 -4.35215122 -1.37012168 0 0 Z " fill="#9BBBBE" transform="translate(324,397)"/>
<path d="M0 0 C0 0.66 0 1.32 0 2 C-17.49 2 -34.98 2 -53 2 C-53 1.34 -53 0.68 -53 0 C-35.723552 -2.78367321 -17.41398082 -0.66819643 0 0 Z " fill="#21546B" transform="translate(379,72)"/>
<path d="M0 0 C1.37562854 1.28965176 2.70766393 2.62689293 4 4 C4 4.66 4 5.32 4 6 C5.32 6 6.64 6 8 6 C8 6.66 8 7.32 8 8 C8.99 8 9.98 8 11 8 C12.44140625 9.33203125 12.44140625 9.33203125 14 11 C15.28411893 11.93606206 16.59855063 12.83170318 17.9375 13.6875 C18.60652344 14.12449219 19.27554687 14.56148438 19.96484375 15.01171875 C22.22262734 16.29121609 22.22262734 16.29121609 26 16 C25.34 16.66 24.68 17.32 24 18 C21.9375 17.6875 21.9375 17.6875 19 17 C16.66308106 16.83827551 14.32805098 16.68825795 11.98828125 16.57421875 C11.33214844 16.38472656 10.67601562 16.19523437 10 16 C9.30029802 14.6837024 8.63510629 13.348652 8 12 C6.66876968 11.32914378 5.33539729 10.66252269 4 10 C2.734375 8.125 2.734375 8.125 1.75 6 C1.41484375 5.29875 1.0796875 4.5975 0.734375 3.875 C0 2 0 2 0 0 Z " fill="#7AB2B3" transform="translate(316,398)"/>
<path d="M0 0 C13.38727864 11.10859291 23.55662599 24.05433787 33.625 38.125 C34.14618408 38.84751953 34.66736816 39.57003906 35.2043457 40.31445312 C35.92690552 41.33829102 35.92690552 41.33829102 36.6640625 42.3828125 C37.09154785 42.98496582 37.5190332 43.58711914 37.95947266 44.20751953 C39.07249315 46.12488143 39.567913 47.83479716 40 50 C36.19436603 46.52490231 33.50675956 42.54122101 30.625 38.3125 C22.02598272 25.93415161 12.71063144 14.10980406 1.6953125 3.78515625 C0 2 0 2 0 0 Z " fill="#202231" transform="translate(429,71)"/>
<path d="M0 0 C1.62122772 0.00033989 1.62122772 0.00033989 3.27520752 0.00068665 C4.43574646 0.0161705 5.5962854 0.03165436 6.79199219 0.04760742 C7.98491882 0.05185226 9.17784546 0.05609711 10.40692139 0.06047058 C14.21779938 0.07726594 18.02814897 0.114921 21.83886719 0.15307617 C24.42219288 0.16812184 27.00552687 0.18181045 29.58886719 0.1940918 C35.92238087 0.22717236 42.25558628 0.27738093 48.58886719 0.34057617 C48.58886719 0.67057617 48.58886719 1.00057617 48.58886719 1.34057617 C47.62833183 1.34604462 47.62833183 1.34604462 46.64839172 1.35162354 C39.98080205 1.39344815 33.31390076 1.46279389 26.64672852 1.5480957 C24.15884284 1.57631369 21.67086737 1.59752404 19.18286133 1.61157227 C15.60548912 1.63298938 12.02919746 1.67963637 8.45214844 1.73120117 C7.34051834 1.73242981 6.22888824 1.73365845 5.08357239 1.73492432 C-1.03604449 1.80822717 -1.03604449 1.80822717 -6.52758789 4.25366211 C-7.45994263 5.28668457 -7.45994263 5.28668457 -8.41113281 6.34057617 C-9.07113281 7.00057617 -9.73113281 7.66057617 -10.41113281 8.34057617 C-10.09207478 5.38928935 -9.87714787 3.78968268 -7.70245361 1.69389343 C-4.91057061 0.04493033 -3.22867528 -0.0226309 0 0 Z " fill="#41D6D1" transform="translate(329.4111328125,73.659423828125)"/>
<path d="M0 0 C0.99 0.33 1.98 0.66 3 1 C2.51917969 1.64324219 2.03835938 2.28648438 1.54296875 2.94921875 C-0.48378864 6.95655425 -0.55753575 10.38257554 -0.6875 14.8125 C-0.72166016 15.60076172 -0.75582031 16.38902344 -0.79101562 17.20117188 C-0.87299875 19.13363119 -0.93818845 21.06679035 -1 23 C-2.65 21.68 -4.3 20.36 -6 19 C-5.01 19 -4.02 19 -3 19 C-3.061875 17.72125 -3.12375 16.4425 -3.1875 15.125 C-3.21325153 9.72576189 -1.77385997 5.05761265 0 0 Z " fill="#1D4A68" transform="translate(319,75)"/>
<path d="M0 0 C0.66 0 1.32 0 2 0 C1.6143354 7.11484687 0.60900601 13.35441866 -2 20 C-2.66 20 -3.32 20 -4 20 C-3.34 16.7 -2.68 13.4 -2 10 C-1.34 10 -0.68 10 0 10 C-0.33 8.35 -0.66 6.7 -1 5 C-0.34 5 0.32 5 1 5 C0.67 3.35 0.34 1.7 0 0 Z " fill="#191C29" transform="translate(499,293)"/>
<path d="M0 0 C1 3 1 3 -0.21484375 5.91796875 C-0.78332031 6.99691406 -1.35179687 8.07585937 -1.9375 9.1875 C-2.50339844 10.27417969 -3.06929688 11.36085938 -3.65234375 12.48046875 C-4.09707031 13.31191406 -4.54179687 14.14335937 -5 15 C-6.34611285 10.96166145 -5.43538136 8.9643866 -4 5 C-1.875 2.0625 -1.875 2.0625 0 0 Z " fill="#131520" transform="translate(484,347)"/>
<path d="M0 0 C-0.70125 0.556875 -1.4025 1.11375 -2.125 1.6875 C-5.11344261 4.09124732 -8.05940238 6.53810432 -11 9 C-11.66 8.67 -12.32 8.34 -13 8 C-11.78719339 6.65176834 -10.55401909 5.32183918 -9.3125 4 C-8.62800781 3.2575 -7.94351563 2.515 -7.23828125 1.75 C-4.58663012 -0.3231932 -3.2828659 -0.36795695 0 0 Z " fill="#68AA4A" transform="translate(227,196)"/>
<path d="M0 0 C3.63 0 7.26 0 11 0 C11 0.66 11 1.32 11 2 C6.58937864 3.0257259 4.07369424 3.03684712 0 1 C0 0.67 0 0.34 0 0 Z " fill="#8DB7B9" transform="translate(302,398)"/>
<path d="M0 0 C-0.99 2.97 -1.98 5.94 -3 9 C-3.66 9 -4.32 9 -5 9 C-5.36666667 3.5 -5.36666667 3.5 -3.625 1.125 C-2 0 -2 0 0 0 Z " fill="#61A346" transform="translate(248,320)"/>
<path d="M0 0 C1.65 1.32 3.3 2.64 5 4 C4 5 4 5 1.4375 5.0625 C0.2309375 5.0315625 0.2309375 5.0315625 -1 5 C-1.33 4.01 -1.66 3.02 -2 2 C-1.34 1.34 -0.68 0.68 0 0 Z " fill="#4EA4A5" transform="translate(321,412)"/>
<path d="M0 0 C0.33 0 0.66 0 1 0 C1 2.97 1 5.94 1 9 C0.01 9.33 -0.98 9.66 -2 10 C-1.34 6.7 -0.68 3.4 0 0 Z " fill="#0F1221" transform="translate(497,303)"/>
<path d="M0 0 C-1.38081223 4.1424367 -3.59825558 5.32203099 -7 8 C-6.65930765 4.84859577 -6.41923159 3.39218439 -4.0625 1.1875 C-2 0 -2 0 0 0 Z " fill="#37C5C3" transform="translate(326,74)"/>
<path d="M0 0 C0.99 0 1.98 0 3 0 C8 5.34883721 8 5.34883721 8 8 C4.65001479 6.88333826 4.20659778 6.25305075 2.3125 3.4375 C1.87550781 2.79683594 1.43851563 2.15617187 0.98828125 1.49609375 C0.49908203 0.75552734 0.49908203 0.75552734 0 0 Z " fill="#050816" transform="translate(55,406)"/>
<path d="M0 0 C2.09230769 4.43076923 2.09230769 4.43076923 1.625 7.3125 C1.41875 7.869375 1.2125 8.42625 1 9 C0.54625 8.05125 0.0925 7.1025 -0.375 6.125 C-1.80238254 2.99686321 -1.80238254 2.99686321 -4 1 C-2 0 -2 0 0 0 Z " fill="#95B5B9" transform="translate(319,395)"/>
<path d="M0 0 C0.99 0.33 1.98 0.66 3 1 C1.37660195 2.70884005 -0.29319053 4.37446717 -2 6 C-2.66 6 -3.32 6 -4 6 C-2.84826645 3.53199953 -1.95216435 1.95216435 0 0 Z " fill="#27A9AA" transform="translate(50,196)"/>
</svg>
