<?xml version="1.0" encoding="UTF-8"?>
<svg version="1.1" xmlns="http://www.w3.org/2000/svg" width="508" height="500">
<path d="M0 0 C0.99660645 0.19335938 1.99321289 0.38671875 3.02001953 0.5859375 C49.47593397 9.76521256 92.27313598 30.69445861 127 63 C128.3709163 64.19221213 129.74576624 65.37991999 131.125 66.5625 C137.99569648 72.57952277 144.00815 79.03168468 149.71875 86.16015625 C151.19592633 87.99903843 152.6947954 89.82078823 154.21875 91.62109375 C190.4982592 134.60720237 208.53557447 190.87487266 208.3125 246.625 C208.31034485 247.59555328 208.3081897 248.56610657 208.30596924 249.56607056 C208.2549334 263.89430898 207.90758438 277.92185782 205 292 C204.80132324 292.98307129 204.60264648 293.96614258 204.39794922 294.97900391 C195.18280455 339.28762836 175.31832474 381.04522225 144 414 C142.78427491 415.3894001 141.57537389 416.78481591 140.375 418.1875 C134.38174852 425.04489472 127.93809498 431.03470128 120.828125 436.7265625 C119.02615055 438.17511102 117.24248128 439.64694922 115.484375 441.1484375 C102.55811998 452.13178916 88.01113241 461.15754691 73 469 C72.25540527 469.39396973 71.51081055 469.78793945 70.74365234 470.19384766 C48.68725094 481.72239556 24.44943457 489.50044698 0 494 C-0.80066895 494.16081055 -1.60133789 494.32162109 -2.42626953 494.48730469 C-30.50412453 499.9794441 -63.98977935 499.73396692 -92 494 C-93.49490967 493.70996094 -93.49490967 493.70996094 -95.02001953 493.4140625 C-141.47593397 484.23478744 -184.27313598 463.30554139 -219 431 C-220.3709163 429.80778787 -221.74576624 428.62008001 -223.125 427.4375 C-229.99569648 421.42047723 -236.00815 414.96831532 -241.71875 407.83984375 C-243.19592633 406.00096157 -244.6947954 404.17921177 -246.21875 402.37890625 C-282.4982592 359.39279763 -300.53557447 303.12512734 -300.3125 247.375 C-300.31034485 246.40444672 -300.3081897 245.43389343 -300.30596924 244.43392944 C-300.2549334 230.10569102 -299.90758438 216.07814218 -297 202 C-296.80132324 201.01692871 -296.60264648 200.03385742 -296.39794922 199.02099609 C-287.18280455 154.71237164 -267.31832474 112.95477775 -236 80 C-234.78427491 78.6105999 -233.57537389 77.21518409 -232.375 75.8125 C-226.38174852 68.95510528 -219.93809498 62.96529872 -212.828125 57.2734375 C-211.02615055 55.82488898 -209.24248128 54.35305078 -207.484375 52.8515625 C-194.55811998 41.86821084 -180.01113241 32.84245309 -165 25 C-164.25540527 24.60603027 -163.51081055 24.21206055 -162.74365234 23.80615234 C-140.68725094 12.27760444 -116.44943457 4.49955302 -92 0 C-91.19933105 -0.16081055 -90.39866211 -0.32162109 -89.57373047 -0.48730469 C-61.49587547 -5.9794441 -28.01022065 -5.73396692 0 0 Z " fill="#27A996" transform="translate(300,3)"/>
<path d="M0 0 C3.836531 2.0159112 7.15678158 4.58347213 10.5625 7.25 C16.30184443 11.71713013 22.10910311 16.08735156 27.9375 20.4375 C34.94059337 25.6724597 41.86903567 30.98541145 48.72265625 36.4140625 C54.10033998 40.67119157 59.55464548 44.83005243 65 49 C65.02578125 47.91460937 65.0515625 46.82921875 65.078125 45.7109375 C65.13443738 44.26558651 65.191784 42.82027556 65.25 41.375 C65.26417969 40.66214844 65.27835937 39.94929688 65.29296875 39.21484375 C65.52777325 34.09610556 66.65105189 31.07007197 70 27 C73.28559001 24.80960666 74.29343586 24.74121471 78.1105957 24.70947266 C79.15210281 24.69671295 80.19360992 24.68395325 81.26667786 24.67080688 C82.39168198 24.66858124 83.5166861 24.66635559 84.67578125 24.6640625 C85.83369675 24.6574057 86.99161224 24.6507489 88.18461609 24.64389038 C90.63665171 24.63375736 93.08871495 24.62907356 95.54077148 24.62939453 C99.28741137 24.62502923 103.03286611 24.58873601 106.77929688 24.55078125 C109.1614543 24.54491167 111.54361733 24.54094322 113.92578125 24.5390625 C115.60417839 24.51750595 115.60417839 24.51750595 117.31648254 24.49551392 C124.98167338 24.54039264 128.54070174 25.54070174 134 31 C134.24050903 33.89797974 134.24050903 33.89797974 134.22705078 37.65283203 C134.22734283 38.33587402 134.22763489 39.01891602 134.22793579 39.72265625 C134.22654039 41.98450341 134.21096967 44.24602276 134.1953125 46.5078125 C134.19158311 48.07436951 134.18873579 49.64092884 134.18673706 51.20748901 C134.17909476 55.33394797 134.15944124 59.46026651 134.1373291 63.58666992 C134.11688346 67.79604187 134.1077381 72.00543648 134.09765625 76.21484375 C134.07619583 84.476627 134.04205279 92.73829604 134 101 C134.77005371 101.29100586 135.54010742 101.58201172 136.33349609 101.88183594 C139.56887746 103.23855144 141.88017021 105.06282692 144.625 107.25 C145.77980429 108.15809151 146.93614893 109.06422643 148.09375 109.96875 C148.71894531 110.45730469 149.34414063 110.94585937 149.98828125 111.44921875 C153.65580173 114.27641415 157.39203447 117.0101528 161.125 119.75 C161.92647461 120.33910156 162.72794922 120.92820312 163.55371094 121.53515625 C166.03494782 123.35794511 168.51729076 125.17921715 171 127 C189.6685872 140.69127036 189.6685872 140.69127036 197.5625 146.6875 C198.57441406 147.45449219 199.58632813 148.22148437 200.62890625 149.01171875 C203.80965878 151.67893957 204.92618231 153.20276891 205.3125 157.375 C204.97673312 161.26989583 204.4315959 162.98146716 202 166 C197.254305 169.94041525 192.30402608 169.38543729 186.44921875 169.29296875 C184.92830376 169.28660149 184.92830376 169.28660149 183.37666321 169.28010559 C180.14666901 169.26334859 176.91730478 169.22570122 173.6875 169.1875 C171.49414965 169.17244934 169.3007895 169.1587616 167.10742188 169.14648438 C161.73806727 169.11345487 156.36907865 169.06328494 151 169 C151.00368717 169.98398584 151.00737434 170.96797169 151.01117325 171.98177528 C151.09994852 195.91788109 151.16569211 219.85396556 151.20724869 243.79020119 C151.227879 255.36556472 151.25600868 266.94081953 151.30175781 278.51611328 C151.34161107 288.6044568 151.3674294 298.69272159 151.37635398 308.78114164 C151.38157126 314.12352771 151.39384371 319.46568855 151.42292023 324.80800247 C151.45006532 329.83617783 151.45844676 334.86403509 151.45243073 339.89227676 C151.45353136 341.73776477 151.4614906 343.58326339 151.4768219 345.42868805 C151.49673586 347.94931935 151.49193444 350.46875111 151.48101807 352.9894104 C151.49266943 353.71899542 151.5043208 354.44858045 151.51632524 355.20027411 C151.44643885 361.17397793 149.29572454 364.71210658 145.13916016 368.85449219 C142.24269805 370.40553079 140.04919987 370.3560202 136.7734375 370.328125 C135.5771875 370.32296875 134.3809375 370.3178125 133.1484375 370.3125 C131.90320313 370.291875 130.65796875 370.27125 129.375 370.25 C128.12203125 370.24484375 126.8690625 370.2396875 125.578125 370.234375 C116.30858516 370.15429258 116.30858516 370.15429258 114 369 C114 368.01 114 367.02 114 366 C115.010625 365.154375 116.02125 364.30875 117.0625 363.4375 C122.81480245 358.58085818 127.7520576 353.71358114 128.6434288 345.90153503 C128.98485831 340.78213408 128.92101552 335.66470821 128.87060547 330.53710938 C128.87686348 328.56844926 128.88620807 326.59979691 128.89839172 324.63116455 C128.92277581 319.30916322 128.90454732 313.98806761 128.87875509 308.66610527 C128.85935316 303.09363115 128.88034853 297.52131367 128.89724731 291.94885254 C128.92329818 281.40458082 128.91475825 270.8606445 128.89297402 260.3163743 C128.86261612 244.81664121 128.88664972 229.3169703 128.90797615 213.81723785 C128.91102238 211.53330998 128.91403816 209.24938206 128.91702271 206.9654541 C128.91852361 205.85091559 128.92002451 204.73637708 128.9215709 203.58806467 C128.92937392 196.950126 128.92796291 190.3122665 128.91824031 183.67433071 C128.9125318 179.55741105 128.9103359 175.44049326 128.90854454 171.32357025 C128.90670438 169.4086812 128.90309484 167.49379295 128.89762688 165.57891083 C128.89028488 162.97458659 128.88888865 160.37032417 128.8888855 157.76599121 C128.8831904 156.61767704 128.8831904 156.61767704 128.87738025 155.44616461 C128.88607792 150.22784417 128.88607792 150.22784417 130 148 C144.85 147.505 144.85 147.505 160 147 C142.64839118 133.93304714 142.64839118 133.93304714 125.0546875 121.1953125 C124.41611816 120.74236816 123.77754883 120.28942383 123.11962891 119.82275391 C121.90779199 118.96538483 120.69403663 118.1107184 119.47802734 117.25927734 C113.61405794 113.11684024 113.61405794 113.11684024 112 111 C111.63923645 108.17158508 111.63923645 108.17158508 111.65942383 104.69262695 C111.65965042 103.39150467 111.65987701 102.09038239 111.66011047 100.74983215 C111.67543048 99.3293117 111.69107847 97.90879474 111.70703125 96.48828125 C111.71262724 95.03525734 111.71689733 93.58222776 111.71989441 92.12919617 C111.73134305 88.30679671 111.76081001 84.4847398 111.79400635 80.66247559 C111.82470705 76.76135899 111.83839972 72.86018698 111.85351562 68.95898438 C111.88568009 61.30581541 111.93844773 53.65299936 112 46 C104.08 46 96.16 46 88 46 C88.04640625 48.32417969 88.0928125 50.64835937 88.140625 53.04296875 C88.1718538 55.3034446 88.19612244 57.56389608 88.21972656 59.82446289 C88.23979558 61.39097923 88.26705751 62.95742109 88.30175781 64.52368164 C88.35048754 66.78029794 88.3730147 69.03592083 88.390625 71.29296875 C88.41127014 71.98899704 88.43191528 72.68502533 88.45318604 73.40214539 C88.45483032 76.99581935 88.08015358 78.87681281 86.10058594 81.91918945 C83.60024649 84.39599014 82.51851373 84.90071014 79.0625 85.5625 C73.59289605 85.41738806 69.86009598 81.68058875 65.76220703 78.40429688 C63.77144616 76.81786621 61.76034718 75.25961382 59.74609375 73.703125 C56.63046124 71.29307593 53.5212881 68.87510303 50.41796875 66.44921875 C45.20720017 62.37736736 39.96952419 58.34156198 34.72070312 54.31884766 C33.49770391 53.38146943 32.27508759 52.44359155 31.05273438 51.50537109 C26.77267726 48.22055861 22.48676493 44.94358693 18.19482422 41.67431641 C16.71564562 40.54592855 15.23813856 39.41534656 13.76220703 38.28271484 C11.59555258 36.62055217 9.42341023 34.9658145 7.25 33.3125 C6.59475342 32.80734863 5.93950684 32.30219727 5.2644043 31.78173828 C0.53940065 28.03123466 0.53940065 28.03123466 -5 26 C-7.87207481 27.48518143 -7.87207481 27.48518143 -10.6875 30 C-11.83669218 30.93817093 -12.9864653 31.87563056 -14.13671875 32.8125 C-14.75466309 33.32554688 -15.37260742 33.83859375 -16.00927734 34.3671875 C-19.61200319 37.32218265 -23.31389398 40.15026996 -27 43 C-28.55634021 44.21048683 -30.11233494 45.42141799 -31.66796875 46.6328125 C-39.02645815 52.35555008 -46.41610351 58.03671604 -53.8359375 63.6796875 C-55.61981942 65.03642184 -57.40367281 66.3931937 -59.1875 67.75 C-60.0856543 68.43312256 -60.98380859 69.11624512 -61.90917969 69.82006836 C-68.57868941 74.89991993 -75.20323901 80.03487302 -81.81201172 85.19335938 C-86.88432205 89.14723041 -92.00232616 93.02925323 -97.16015625 96.87109375 C-100.21101784 99.15819081 -103.2329821 101.4811264 -106.25 103.8125 C-110.99377949 107.47407815 -115.76632379 111.0948319 -120.5625 114.6875 C-121.5517749 115.4285498 -121.5517749 115.4285498 -122.56103516 116.18457031 C-125.51845705 118.39825563 -128.47733979 120.60996756 -131.43798828 122.81933594 C-142.06456216 130.74985938 -152.62716789 138.73951615 -163 147 C-162.13721436 147.01458252 -161.27442871 147.02916504 -160.38549805 147.04418945 C-157.18150353 147.10527754 -153.97815375 147.17943549 -150.7746582 147.26245117 C-149.38870623 147.29568549 -148.00261939 147.32372226 -146.61645508 147.34643555 C-144.62293157 147.38000617 -142.62978259 147.43388 -140.63671875 147.48828125 C-139.43748779 147.51446533 -138.23825684 147.54064941 -137.00268555 147.56762695 C-134 148 -134 148 -132.33599091 149.05617809 C-130.29467881 152.02621864 -130.58845177 155.05528341 -130.62145996 158.53352356 C-130.61692983 159.30772839 -130.6123997 160.08193322 -130.6077323 160.8795988 C-130.59607531 163.48215776 -130.6057685 166.08420602 -130.61523438 168.68676758 C-130.61113072 170.54937574 -130.60567107 172.41198134 -130.59895325 174.27458191 C-130.5872107 178.29010367 -130.5847502 182.30548792 -130.58930969 186.32102394 C-130.59610596 192.67011687 -130.58027387 199.01902814 -130.56091309 205.36808777 C-130.52301019 218.84954868 -130.51025387 232.33099398 -130.5 245.8125 C-130.48893262 260.35545304 -130.47359504 274.8983228 -130.42928743 289.44121855 C-130.41091835 295.7527591 -130.40704366 302.06409294 -130.41422272 308.37565386 C-130.41574425 312.30379967 -130.40496239 316.23184204 -130.39084435 320.15995979 C-130.38684048 321.98124044 -130.38796878 323.80254072 -130.39461708 325.62381363 C-130.40299946 328.11130388 -130.39300746 330.59807834 -130.37854004 333.08552551 C-130.38543397 333.80528228 -130.39232791 334.52503905 -130.39943075 335.26660663 C-130.34530458 340.04802735 -129.51165236 344.48834764 -126 348 C-123.55535922 348.10212639 -121.13881848 348.13887441 -118.69352722 348.13371277 C-117.91962011 348.13597833 -117.145713 348.13824388 -116.34835416 348.14057809 C-113.73506957 348.14694721 -111.12183645 348.14608687 -108.50854492 348.14526367 C-106.64298942 348.1482534 -104.77743455 348.15165549 -102.91188049 348.15544128 C-97.82918531 348.16430559 -92.74650694 348.16662044 -87.66380477 348.16725707 C-83.42664514 348.16820435 -79.18948947 348.17188063 -74.95233136 348.17542917 C-64.95739532 348.18358334 -54.96246829 348.18601256 -44.9675293 348.18530273 C-34.64576165 348.18470203 -24.32404628 348.19525027 -14.00229186 348.2110464 C-5.15217377 348.22410943 3.69792721 348.22948714 12.54805487 348.22884732 C17.8388618 348.22859193 23.12962233 348.23146597 28.42041969 348.24202538 C33.39683853 348.2516853 38.37316641 348.25180003 43.34958839 348.24450874 C45.17816297 348.2434602 47.00674314 348.2458417 48.83530807 348.2518692 C51.32783879 348.25955426 53.8200527 348.25496753 56.31257629 348.24723816 C57.40299633 348.2549535 57.40299633 348.2549535 58.51544505 348.26282471 C62.16233126 348.23776275 64.94047711 348.08738273 68 346 C70.54074553 342.56999354 70.44368738 339.14108223 70 335 C68.13291495 332.63502561 66.67938569 331.33969285 64 330 C61.92533369 329.900248 59.84739795 329.86653961 57.77033997 329.86196899 C56.80125789 329.85773707 56.80125789 329.85773707 55.81259841 329.85341966 C53.63783029 329.84505631 51.46311298 329.84373392 49.28833008 329.84228516 C47.73290869 329.8376181 46.17748867 329.83247472 44.62207031 329.82688904 C41.26682984 329.81559669 37.9115983 329.8071679 34.55634499 329.80076981 C29.24884854 329.7900995 23.94141607 329.76985626 18.63395691 329.74765015 C3.53944841 329.68569649 -11.55505687 329.63173871 -26.6496582 329.59863281 C-34.98199425 329.58027768 -43.31422367 329.55132855 -51.64648134 329.5106281 C-56.05597081 329.48956927 -60.46532598 329.47410247 -64.87486839 329.47182083 C-69.0257016 329.46967065 -73.17625541 329.45376364 -77.32700348 329.42743111 C-78.84791586 329.42025013 -80.36886214 329.41813131 -81.88978767 329.42153358 C-83.97199378 329.42544629 -86.05331536 329.41091738 -88.13542175 329.39199829 C-89.29889224 329.38868814 -90.46236273 329.385378 -91.6610899 329.38196754 C-96.24206645 328.857909 -100.13620032 327.50331765 -103.75459862 324.58476257 C-108.71489413 317.39354687 -107.69917044 308.50354726 -107.64697266 300.14453125 C-107.65375379 298.32383349 -107.6626597 296.50314258 -107.67352295 294.6824646 C-107.69626392 289.75263436 -107.68750144 284.82332893 -107.67162752 279.89348984 C-107.65894158 274.72691211 -107.67071612 269.56037838 -107.67855835 264.39379883 C-107.68764705 255.71850544 -107.6756874 247.04342509 -107.65185547 238.36816406 C-107.62464575 228.34780586 -107.63346046 218.32795639 -107.6609875 208.30761051 C-107.68369972 199.69418779 -107.68686829 191.08091794 -107.67379415 182.46747494 C-107.66601128 177.32748517 -107.66492605 172.18773429 -107.68147659 167.04776001 C-107.69595281 162.21465952 -107.68584204 157.38221296 -107.65700531 152.54918289 C-107.65041133 150.77873443 -107.65226323 149.00823064 -107.66331863 147.23780441 C-107.76172684 129.8736437 -107.76172684 129.8736437 -102 124 C-96.9852299 119.15165288 -93.65583182 117.85092315 -86.79000854 117.84609985 C-86.03848704 117.8417176 -85.28696553 117.83733535 -84.51267064 117.8328203 C-81.9809381 117.81940879 -79.4492404 117.81324812 -76.91748047 117.80712891 C-75.10752708 117.79922965 -73.29757526 117.79096081 -71.48762512 117.78234863 C-65.53082794 117.75610322 -59.57402364 117.74081626 -53.6171875 117.7265625 C-51.56748576 117.72120343 -49.51778407 117.71582593 -47.46808243 117.71043015 C-38.94113461 117.68879574 -30.41418871 117.67005957 -21.88722038 117.65880775 C-9.66418186 117.64257352 2.5585385 117.60941481 14.78145707 117.55240691 C23.37348343 117.51369973 31.96542474 117.494174 40.55753601 117.48888719 C45.68984996 117.48523417 50.82182476 117.47321842 55.95404434 117.44078445 C60.7853391 117.4106911 65.61608976 117.40439657 70.44745827 117.41616821 C72.21793331 117.41638886 73.98843368 117.40809141 75.75882149 117.39051437 C93.09961594 117.22776275 93.09961594 117.22776275 99 123 C104.45372401 128.5158018 105.14885784 132.94641736 105.14717102 140.4936676 C105.15084771 141.37122253 105.1545244 142.24877746 105.1583125 143.15292495 C105.16936073 146.10529242 105.17319515 149.05762471 105.17700195 152.01000977 C105.18326584 154.12227999 105.18991258 156.23454911 105.19691467 158.34681702 C105.21433353 164.09505754 105.22487931 169.84328973 105.2331202 175.59155011 C105.23826952 179.18322154 105.24434534 182.77489038 105.25063133 186.36655998 C105.26968769 197.6048526 105.2839167 208.84313865 105.2922433 220.08144432 C105.302012 233.05209761 105.3283202 246.02258008 105.36874419 258.99317318 C105.3989168 269.01878617 105.41371335 279.04435023 105.41702431 289.07000774 C105.41937387 295.05744083 105.42832206 301.04469152 105.45348549 307.03207588 C105.47679043 312.66850325 105.48098952 318.30462845 105.47072411 323.94109154 C105.4702292 326.00581493 105.47653632 328.07055331 105.49028015 330.13523102 C105.56445784 341.94284582 105.41734838 351.11413341 98.875 361.3125 C91.70740133 368.01264658 83.70852544 370.1500554 74.13774109 370.14044189 C72.76204735 370.14489858 72.76204735 370.14489858 71.35856181 370.1494453 C68.27247933 370.15814604 65.18643558 370.1596417 62.1003418 370.16113281 C59.89291297 370.16576 57.68548495 370.17078452 55.47805786 370.17617798 C49.47182615 370.18931319 43.46560562 370.19574907 37.45936179 370.20018864 C33.70892228 370.20311742 29.95848584 370.20722185 26.20804787 370.21169281 C15.823836 370.22380278 5.4396263 370.23418457 -4.94459248 370.2375679 C-5.60919027 370.23778747 -6.27378807 370.23800703 -6.95852519 370.23823325 C-7.95780455 370.23856067 -7.95780455 370.23856067 -8.97727138 370.2388947 C-10.32721412 370.23933817 -11.67715687 370.23978473 -13.02709961 370.24023438 C-14.03152654 370.24056652 -14.03152654 370.24056652 -15.05624493 370.24090537 C-25.90609651 370.24485327 -36.75588092 370.26230714 -47.60570655 370.2855939 C-58.74549166 370.30930997 -69.88525227 370.3215119 -81.02506512 370.32293582 C-87.27949373 370.32398513 -93.53382761 370.32991984 -99.7882328 370.34775543 C-105.67084212 370.36420415 -111.55328519 370.36640713 -117.43590927 370.35761642 C-119.59583544 370.35684435 -121.75577043 370.36121113 -123.91567421 370.37107468 C-126.86291207 370.3837451 -129.80955672 370.3779439 -132.75679016 370.36749268 C-133.61273012 370.37554908 -134.46867008 370.38360548 -135.35054761 370.39190602 C-140.28367907 370.35095603 -143.81943755 369.89733039 -148 367 C-151.90948486 362.52049548 -152.57302188 358.75050368 -152.48101807 352.9894104 C-152.48614462 351.8056575 -152.48614462 351.8056575 -152.49137473 350.59799039 C-152.49794498 347.96290248 -152.4759924 345.32884117 -152.45410156 342.69384766 C-152.4529729 340.80136133 -152.45360732 338.90887325 -152.45587158 337.01638794 C-152.45701891 331.88452178 -152.43350639 326.75302985 -152.40557575 321.62125063 C-152.38056534 316.25609517 -152.37822038 310.89093108 -152.37347412 305.52572632 C-152.36104331 295.36854401 -152.32822018 285.21153397 -152.28807616 275.0544275 C-152.24336181 263.48984106 -152.22137224 251.92524637 -152.20129442 240.36059499 C-152.15948773 216.57363449 -152.08913352 192.7868269 -152 169 C-152.57549591 169.01110306 -153.15099182 169.02220612 -153.743927 169.03364563 C-159.74611861 169.14446022 -165.74801859 169.21975846 -171.75097656 169.2746582 C-173.98970345 169.29976693 -176.22834864 169.33386086 -178.46679688 169.37719727 C-181.68900734 169.43800719 -184.91013194 169.46624677 -188.1328125 169.48828125 C-189.62846237 169.52699089 -189.62846237 169.52699089 -191.15432739 169.56648254 C-195.72277662 169.56831695 -198.97172894 169.54008848 -202.61669922 166.59448242 C-205.52139857 163.43240088 -206.19221813 161.87039284 -206.375 157.6875 C-206.42398438 156.92824219 -206.47296875 156.16898438 -206.5234375 155.38671875 C-205.30498848 149.83095493 -199.13292639 146.39143511 -194.8125 143.0625 C-194.20865479 142.59287842 -193.60480957 142.12325684 -192.98266602 141.6394043 C-191.67409554 140.62214279 -190.36440469 139.60632118 -189.05371094 138.59179688 C-186.97166081 136.97803477 -184.89534683 135.35714595 -182.8203125 133.734375 C-167.94586846 122.11261473 -152.93262283 110.67502373 -137.8125 99.375 C-130.67571462 94.04003137 -123.6096249 88.62318168 -116.58837891 83.13720703 C-109.41228583 77.53073538 -102.1765046 72.00416851 -94.93701172 66.47998047 C-92.03646915 64.26381094 -89.14249694 62.03915532 -86.25 59.8125 C-85.2084375 59.01070312 -84.166875 58.20890625 -83.09375 57.3828125 C-82.0728125 56.59648438 -81.051875 55.81015625 -80 55 C-72.92534312 49.55108498 -65.84387445 44.1113733 -58.75 38.6875 C-58.03577881 38.14134033 -57.32155762 37.59518066 -56.58569336 37.0324707 C-52.93536293 34.24176186 -49.28339145 31.45323485 -45.62890625 28.66796875 C-38.88749167 23.52684265 -32.16201336 18.36878999 -25.5 13.125 C-24.92894531 12.67576172 -24.35789063 12.22652344 -23.76953125 11.76367188 C-21.25327227 9.78197026 -18.74210673 7.79426902 -16.23828125 5.796875 C-15.03751953 4.84554687 -15.03751953 4.84554687 -13.8125 3.875 C-13.13832031 3.33617187 -12.46414062 2.79734375 -11.76953125 2.2421875 C-8.01363331 -0.39440311 -4.44591417 -0.30661477 0 0 Z " fill="#FCFDFC" transform="translate(254,53)"/>
<path d="M0 0 C0.69626999 -0.00686325 1.39253998 -0.0137265 2.10990906 -0.02079773 C4.41210306 -0.03910279 6.71361796 -0.03522311 9.01586914 -0.02954102 C10.61625898 -0.03410125 12.21664685 -0.03940635 13.81703186 -0.04542542 C17.17204745 -0.0543639 20.5268251 -0.05192536 23.88183594 -0.04199219 C28.18071168 -0.03050466 32.47876576 -0.05070616 36.77753353 -0.07990932 C40.08298457 -0.09825921 43.3882383 -0.09798129 46.69372749 -0.0922718 C48.27856155 -0.09211842 49.86340884 -0.09817679 51.4481945 -0.11056328 C53.66520521 -0.12544859 55.88069308 -0.11481647 58.09765625 -0.09765625 C59.98936806 -0.097407 59.98936806 -0.097407 61.91929626 -0.09715271 C65.11352539 0.40405273 65.11352539 0.40405273 67.55592346 2.2127533 C69.11352539 4.40405273 69.11352539 4.40405273 69.05102539 7.96655273 C67.81169776 12.51075404 67.81169776 12.51075404 65.11352539 14.40405273 C62.08424377 14.78500366 62.08424377 14.78500366 58.31884766 14.79223633 C57.63233124 14.79749329 56.94581482 14.80275024 56.23849487 14.8081665 C53.96874243 14.82137185 51.69969125 14.81262612 49.42993164 14.80249023 C47.85196295 14.80451106 46.27399516 14.80742258 44.69602966 14.81118774 C41.38808301 14.81561199 38.08037935 14.80917784 34.77246094 14.79516602 C30.53423206 14.77808786 26.29657369 14.78790564 22.05836582 14.80588341 C18.79924736 14.8167306 15.54026384 14.81327041 12.28114128 14.80550003 C10.71864695 14.80349987 9.15614034 14.80595084 7.59366035 14.81293869 C5.40797677 14.82056725 3.22321284 14.80892993 1.03759766 14.79223633 C-0.82746681 14.78865616 -0.82746681 14.78865616 -2.73020935 14.78500366 C-6.10519142 14.37765433 -7.50491255 13.78350024 -9.88647461 11.40405273 C-10.38256836 9.46655273 -10.38256836 9.46655273 -10.32397461 7.40405273 C-10.32268555 6.72342773 -10.32139648 6.04280273 -10.32006836 5.34155273 C-9.07918824 -0.20328096 -4.95902978 0.0212589 0 0 Z " fill="#64B14A" transform="translate(255.886474609375,216.595947265625)"/>
<path d="M0 0 C0.69626999 -0.00686325 1.39253998 -0.0137265 2.10990906 -0.02079773 C4.41210306 -0.03910279 6.71361796 -0.03522311 9.01586914 -0.02954102 C10.61625898 -0.03410125 12.21664685 -0.03940635 13.81703186 -0.04542542 C17.17204745 -0.0543639 20.5268251 -0.05192536 23.88183594 -0.04199219 C28.18071168 -0.03050466 32.47876576 -0.05070616 36.77753353 -0.07990932 C40.08298457 -0.09825921 43.3882383 -0.09798129 46.69372749 -0.0922718 C48.27856155 -0.09211842 49.86340884 -0.09817679 51.4481945 -0.11056328 C53.66520521 -0.12544859 55.88069308 -0.11481647 58.09765625 -0.09765625 C59.98936806 -0.097407 59.98936806 -0.097407 61.91929626 -0.09715271 C65.11352539 0.40405273 65.11352539 0.40405273 67.55201721 2.2127533 C69.11352539 4.40405273 69.11352539 4.40405273 69.11352539 7.96655273 C67.98929416 11.8310976 67.53777894 12.50698055 64.11352539 14.40405273 C61.00195312 14.78500366 61.00195312 14.78500366 57.29711914 14.79223633 C56.62021027 14.79749329 55.94330139 14.80275024 55.24588013 14.8081665 C53.01402538 14.82134283 50.78288707 14.81263742 48.55102539 14.80249023 C46.99690616 14.80451167 45.44278786 14.80742368 43.88867188 14.81118774 C40.63377845 14.81560787 37.37913224 14.80919027 34.12426758 14.79516602 C29.95444561 14.77807408 25.78520294 14.78791696 21.61540222 14.80588341 C18.40689742 14.8167298 15.19852971 14.81327103 11.99002075 14.80550003 C10.45264619 14.80350038 8.91525914 14.80594907 7.37789917 14.81293869 C5.22824183 14.82056753 3.07951943 14.80893029 0.92993164 14.79223633 C-0.29266357 14.78984955 -1.51525879 14.78746277 -2.77490234 14.78500366 C-6.1223899 14.37516954 -7.51825582 13.76024851 -9.88647461 11.40405273 C-10.38256836 9.46655273 -10.38256836 9.46655273 -10.32397461 7.40405273 C-10.32268555 6.72342773 -10.32139648 6.04280273 -10.32006836 5.34155273 C-9.07918824 -0.20328096 -4.95902978 0.0212589 0 0 Z " fill="#78B439" transform="translate(255.886474609375,324.595947265625)"/>
<path d="M0 0 C0.67530258 -0.00700928 1.35060516 -0.01401855 2.04637146 -0.02124023 C4.27360439 -0.03881234 6.4995613 -0.02720049 8.72680664 -0.01367188 C10.27853132 -0.01636737 11.83025436 -0.02025027 13.38197327 -0.02526855 C16.63274226 -0.03116275 19.88307127 -0.02260488 23.13378906 -0.00390625 C27.29470131 0.01886486 31.45458046 0.00577235 35.61545467 -0.01819611 C38.81974525 -0.03267282 42.02379224 -0.02803932 45.22809029 -0.01768494 C46.76184779 -0.01502181 48.29562761 -0.01827287 49.82935905 -0.02760315 C51.97667583 -0.03779828 54.12233732 -0.02222904 56.26953125 0 C57.48990585 0.00318237 58.71028046 0.00636475 59.96763611 0.00964355 C63.82920103 0.6165518 65.52881499 1.69278513 68.19946289 4.51757812 C68.26196289 8.08007812 68.26196289 8.08007812 67.19946289 11.51757812 C64.84830401 13.93926915 63.4631483 14.48472477 60.08789062 14.90525818 C58.2539978 14.91336266 58.2539978 14.91336266 56.38305664 14.92163086 C55.70614777 14.92849411 55.02923889 14.93535736 54.33181763 14.94242859 C52.09998449 14.960692 49.86885453 14.95686052 47.63696289 14.95117188 C46.08284273 14.95573355 44.52872458 14.96103908 42.97460938 14.96705627 C39.7197245 14.97598614 36.465085 14.97356536 33.21020508 14.96362305 C29.04026427 14.95212636 24.87116939 14.9723553 20.70133972 15.00154018 C17.49282458 15.01988966 14.2845127 15.01961242 11.07595825 15.01390266 C9.53857231 15.01374933 8.00117269 15.01980363 6.46383667 15.03219414 C4.31397456 15.04708186 2.16568227 15.03644659 0.01586914 15.01928711 C-1.20672607 15.01912094 -2.42932129 15.01895477 -3.68896484 15.01878357 C-7.39706186 14.42149119 -8.58135763 13.49838759 -10.80053711 10.51757812 C-11.30053711 7.51757812 -11.30053711 7.51757812 -10.80053711 4.51757812 C-7.63298925 0.26750013 -5.16143506 0.01346826 0 0 Z " fill="#6EB03B" transform="translate(256.800537109375,270.482421875)"/>
<path d="M0 0 C3.0625 1.25 3.0625 1.25 5.0625 4.25 C5.44499229 7.20372312 5.43943138 8.67862789 3.78417969 11.18774414 C3.19024414 11.79739014 2.59630859 12.40703613 1.984375 13.03515625 C1.3236499 13.72552979 0.6629248 14.41590332 -0.01782227 15.12719727 C-0.73381592 15.84834717 -1.44980957 16.56949707 -2.1875 17.3125 C-2.91316162 18.05749756 -3.63882324 18.80249512 -4.38647461 19.57006836 C-5.86269946 21.08267503 -7.34373277 22.59060414 -8.82958984 24.09375 C-10.73350745 26.04132937 -12.58741497 28.02203584 -14.42578125 30.03125 C-15.45010704 31.12538754 -16.47481871 32.21916401 -17.5 33.3125 C-18.38816406 34.27285156 -19.27632812 35.23320312 -20.19140625 36.22265625 C-22.9375 38.25 -22.9375 38.25 -26.28125 38.96875 C-31.47827839 37.94711194 -34.14190281 35.30336548 -37.875 31.6875 C-38.90077148 30.77387695 -38.90077148 30.77387695 -39.94726562 29.84179688 C-43.33604759 26.64259712 -44.81700671 25.14822269 -45.453125 20.40625 C-44.9375 17.25 -44.9375 17.25 -43.75 15.3125 C-41.06783048 13.74019373 -40.0207906 13.54925214 -36.9375 14.25 C-35.03271957 15.93219935 -33.35645619 17.70869904 -31.68359375 19.62109375 C-29.71957782 21.45329653 -28.60592564 22.03737644 -25.9375 22.25 C-22.28264233 19.73220916 -19.52061817 16.8447071 -16.625 13.5 C-15.39703914 12.08228802 -14.16778046 10.66569952 -12.9375 9.25 C-12.21175781 8.40824219 -11.48601562 7.56648438 -10.73828125 6.69921875 C-4.88583139 0.31021152 -4.88583139 0.31021152 0 0 Z " fill="#6EAE3C" transform="translate(227.9375,255.75)"/>
<path d="M0 0 C2.79638672 0.91967773 2.79638672 0.91967773 4.79638672 2.91967773 C5.32451763 6.24183262 5.53662689 8.72593666 3.71090698 11.67016602 C2.12050833 13.53904919 0.44971268 15.26274099 -1.30126953 16.98217773 C-1.92835312 17.61833008 -2.55543671 18.25448242 -3.20152283 18.90991211 C-4.52872899 20.24624176 -5.86487574 21.57374352 -7.20922852 22.89282227 C-9.26174344 24.91537169 -11.27109923 26.97479289 -13.27978516 29.04077148 C-14.57620239 30.33615755 -15.87495634 31.62921012 -17.17626953 32.91967773 C-17.77448013 33.53721924 -18.37269073 34.15476074 -18.98902893 34.79101562 C-22.1590428 37.84085961 -23.3597103 38.90666552 -27.90869141 38.97680664 C-32.71379725 37.43515665 -35.18898473 34.85274462 -38.64111328 31.29467773 C-39.27726563 30.69010742 -39.91341797 30.08553711 -40.56884766 29.46264648 C-43.75754566 26.24997331 -45.09702326 24.68370258 -45.73876953 20.08374023 C-45.20361328 16.91967773 -45.20361328 16.91967773 -43.20361328 14.91967773 C-40.57861328 14.35717773 -40.57861328 14.35717773 -37.20361328 14.91967773 C-35.01145732 16.61016724 -33.07851231 18.41977992 -31.13330078 20.38842773 C-29.0919574 22.33407513 -29.0919574 22.33407513 -25.20361328 21.91967773 C-22.69422061 19.85039135 -22.69422061 19.85039135 -20.21142578 17.07202148 C-19.24958965 16.06447472 -18.2873371 15.05732535 -17.32470703 14.05053711 C-15.82168278 12.45434207 -14.3248062 10.85306243 -12.8359375 9.24365234 C-11.39303791 7.69197593 -9.92911262 6.16271902 -8.46142578 4.63452148 C-7.16422607 3.24414673 -7.16422607 3.24414673 -5.84082031 1.82568359 C-3.20361328 -0.08032227 -3.20361328 -0.08032227 0 0 Z " fill="#6FB241" transform="translate(228.20361328125,201.080322265625)"/>
<path d="M0 0 C1.9375 1.0625 1.9375 1.0625 3 3 C2.80368951 8.91545991 0.97556318 11.86571689 -3.20703125 15.79296875 C-3.72883469 16.3062825 -4.25063812 16.81959625 -4.78825378 17.34846497 C-6.44936986 18.97620034 -8.13009977 20.58180275 -9.8125 22.1875 C-10.93171394 23.27658313 -12.04956737 24.36706625 -13.16601562 25.45898438 C-15.22193505 27.46608416 -17.28533361 29.46473019 -19.35864258 31.45385742 C-20.99815568 33.03426986 -22.61073051 34.64379663 -24.17797852 36.29589844 C-26 38 -26 38 -28.7578125 38.66015625 C-33.64683608 37.66468036 -36.336908 34.82131473 -39.875 31.4375 C-40.90753906 30.52387695 -40.90753906 30.52387695 -41.9609375 29.59179688 C-45.37100482 26.39485876 -46.87657496 24.91315966 -47.51953125 20.15625 C-47 17 -47 17 -45.8125 15.0625 C-43.31779844 13.60008874 -41.86851748 13.6622821 -39 14 C-36.54296875 15.75 -36.54296875 15.75 -34.1875 18 C-33.39730469 18.7425 -32.60710937 19.485 -31.79296875 20.25 C-30.90544922 21.11625 -30.90544922 21.11625 -30 22 C-26.33954532 20.47559203 -24.14706947 18.30026934 -21.4453125 15.4296875 C-20.58292969 14.53378906 -19.72054687 13.63789063 -18.83203125 12.71484375 C-17.02714518 10.82140627 -15.23024006 8.92032892 -13.44140625 7.01171875 C-12.14396484 5.67173828 -12.14396484 5.67173828 -10.8203125 4.3046875 C-10.03930176 3.47952637 -9.25829102 2.65436523 -8.45361328 1.80419922 C-5.39970107 -0.44141384 -3.71083887 -0.44144525 0 0 Z " fill="#74B138" transform="translate(230,311)"/>
<path d="M0 0 C0.66 0.33 1.32 0.66 2 1 C0.42617053 2.65492374 -1.15942902 4.29866024 -2.75 5.9375 C-3.63171875 6.85402344 -4.5134375 7.77054687 -5.421875 8.71484375 C-7.80176695 10.82429343 -8.9099375 11.66067071 -12 12 C-8.57833482 7.29521038 -4.42094803 3.72346836 0 0 Z " fill="#42C4E4" transform="translate(87,60)"/>
<path d="M0 0 C0.33 0.66 0.66 1.32 1 2 C-0.09346881 3.34212062 -1.2001575 4.67347975 -2.3125 6 C-3.23482422 7.11375 -3.23482422 7.11375 -4.17578125 8.25 C-6 10 -6 10 -9 10 C-6.03 6.7 -3.06 3.4 0 0 Z " fill="#48C1E1" transform="translate(69,77)"/>
<path d="M0 0 C2.96052484 3.36423277 3.92289822 6.69159287 5 11 C1.87729874 8.48169253 1.05476902 7.2738451 0.25 3.25 C0.1675 2.1775 0.085 1.105 0 0 Z " fill="#86D3E0" transform="translate(485,146)"/>
</svg>
